<svg xmlns="http://www.w3.org/2000/svg" width="177" height="97" fill="none">
  <path fill="#2A5EBC"
        d="M24.755 54.968c.316.741 1.404.989 2.43.553 1.026-.436 1.602-1.39 1.286-2.132-.317-.74-1.405-.989-2.43-.553-1.027.436-1.602 1.39-1.286 2.132ZM46.98 24.627c.157.698.916 1.123 1.697.95.78-.175 1.286-.882 1.13-1.58-.157-.698-.916-1.124-1.696-.95-.78.174-1.286.881-1.13 1.58ZM.883 57.216c.835.262 1.896-.745 2.368-2.247.472-1.503.178-2.934-.657-3.195-.836-.262-1.896.745-2.369 2.248-.472 1.503-.178 2.933.658 3.194ZM173.055 37.269c1.013.496 2.081.395 2.387-.226.305-.62-.267-1.526-1.28-2.023-1.012-.496-2.08-.395-2.386.226-.306.62.267 1.526 1.279 2.023ZM164.715 50.246c-.265 1.504.199 2.843 1.036 2.99.838.147 1.731-.954 1.996-2.458.265-1.505-.199-2.844-1.036-2.99-.838-.147-1.731.953-1.996 2.458ZM163.444 57.122c1.132 1.07 2.606 1.352 3.292.629.686-.723.325-2.177-.808-3.247-1.132-1.07-2.606-1.351-3.292-.628-.686.723-.324 2.176.808 3.246ZM176.674 26.585c.877.43 1.866.214 2.209-.482.342-.696-.091-1.609-.968-2.039-.877-.43-1.866-.214-2.208.482-.343.696.09 1.61.967 2.04ZM173.074 40.38c.288.677 1.282.903 2.219.505.937-.398 1.463-1.27 1.174-1.947-.289-.677-1.283-.904-2.22-.506-.937.398-1.462 1.27-1.173 1.947ZM139.079 33.607c.56.437 1.569.083 2.254-.792.685-.874.786-1.936.227-2.373-.56-.437-1.569-.083-2.254.791-.685.875-.787 1.937-.227 2.374ZM19.088 42.98c1.337.888 2.863.942 3.41.122.546-.82-.095-2.204-1.432-3.09-1.337-.888-2.863-.942-3.41-.122-.546.82.095 2.204 1.432 3.09ZM83.005 107.385c.83.26 1.885-.739 2.354-2.231.469-1.492.175-2.913-.655-3.173-.831-.26-1.885.739-2.354 2.231-.47 1.492-.176 2.913.655 3.173ZM22.706 33.996c.85.563 1.87.522 2.28-.092.409-.614.052-1.57-.797-2.133-.85-.563-1.87-.522-2.28.092-.409.615-.052 1.57.797 2.133ZM22.597 53.598c.805.534 1.802.448 2.228-.19.426-.64.119-1.591-.685-2.125-.805-.534-1.802-.448-2.228.191-.426.64-.12 1.59.685 2.124ZM78.053 23.73c.353.591 1.423.606 2.39.032.966-.575 1.463-1.52 1.11-2.111-.353-.592-1.422-.606-2.389-.032-.966.574-1.463 1.519-1.11 2.11ZM53.745 28.665c1.112.545 2.285.434 2.621-.248.336-.682-.293-1.677-1.405-2.222-1.112-.545-2.286-.434-2.622.248-.335.682.294 1.677 1.406 2.222ZM47.346 61.326c.56.798 2.136.662 3.518-.305 1.382-.967 2.047-2.398 1.486-3.197-.56-.798-2.136-.662-3.518.305-1.382.967-2.047 2.398-1.486 3.197ZM89.722 72.603c.846 1.204 3.222.998 5.307-.46 2.084-1.46 3.088-3.618 2.242-4.822-.846-1.204-3.221-.998-5.306.46-2.085 1.46-3.089 3.618-2.243 4.822ZM65.007 56.998c.527.116 1.112-.508 1.307-1.394.195-.886-.074-1.698-.6-1.814-.527-.115-1.112.51-1.308 1.395-.195.886.074 1.698.601 1.813ZM48.12 35.765c.91.446 1.91.274 2.234-.383.324-.658-.151-1.553-1.061-2-.91-.445-1.91-.273-2.234.384-.324.658.151 1.553 1.061 2ZM105.288 73.301c.865.424 1.814.262 2.121-.362.307-.624-.144-1.473-1.008-1.896-.865-.424-1.814-.262-2.121.362-.307.623.144 1.473 1.008 1.896ZM64.436 53.226c1.223.721 3.132-.243 4.263-2.154 1.131-1.911 1.056-4.045-.168-4.767-1.224-.72-3.133.244-4.264 2.155-1.13 1.91-1.055 4.044.169 4.766ZM63.809 35.523c.968.916 2.23 1.156 2.816.538.587-.618.278-1.862-.691-2.777-.969-.916-2.23-1.157-2.816-.538-.587.618-.278 1.862.69 2.777ZM54.623 35.079c.332.777 1.475 1.037 2.554.578 1.079-.458 1.684-1.46 1.352-2.237-.331-.778-1.475-1.037-2.553-.58-1.079.459-1.684 1.46-1.353 2.239ZM41.491 34.594c.557.934 2.242.957 3.765.052 1.523-.904 2.306-2.394 1.749-3.327-.557-.933-2.242-.956-3.765-.052-1.522.905-2.305 2.394-1.749 3.327ZM17.19 62.649c.668.95 2.542.787 4.186-.363 1.645-1.15 2.437-2.853 1.77-3.803-.668-.95-2.543-.788-4.187.362-1.644 1.15-2.436 2.854-1.769 3.804ZM42.43 26.598c.361.845 1.597 1.129 2.762.634s1.817-1.58 1.457-2.425c-.36-.845-1.597-1.129-2.762-.634-1.164.494-1.817 1.58-1.456 2.425ZM26.015 47.238c-.273 1.546.204 2.922 1.065 3.073.861.151 1.78-.98 2.052-2.527.272-1.546-.205-2.922-1.066-3.073-.86-.151-1.78.98-2.051 2.527ZM28.416 39.62c.841.413 1.766.255 2.065-.353.3-.609-.14-1.436-.981-1.848-.841-.413-1.766-.255-2.066.354-.3.608.14 1.435.982 1.848Z"/>
  <path fill="#2A5EBC"
        d="M41.728 38.235c1.092 1.034 2.514 1.307 3.176.61.662-.695.313-2.098-.778-3.132-1.092-1.034-2.514-1.308-3.176-.611-.662.696-.314 2.099.778 3.133ZM32.137 40.515c.318.756 1.426 1.013 2.475.574 1.049-.44 1.641-1.409 1.323-2.165-.318-.757-1.426-1.014-2.475-.575-1.049.44-1.641 1.41-1.323 2.166ZM29.422 48.942c.037 1.193.7 2.141 1.48 2.117.78-.024 1.382-1.01 1.345-2.204-.037-1.193-.7-2.14-1.48-2.116-.78.024-1.382 1.01-1.345 2.203ZM61.19 59.544c.346.663 1.557.715 2.704.116 1.148-.598 1.797-1.62 1.45-2.282-.347-.662-1.558-.714-2.705-.116-1.148.598-1.797 1.62-1.45 2.282ZM50.27 67.464c.515.402 1.444.075 2.075-.731.632-.806.726-1.784.211-2.186-.514-.402-1.444-.075-2.075.731-.631.806-.726 1.784-.21 2.186ZM42.169 69.452c-.11 1.106.386 2.06 1.11 2.133.722.072 1.398-.767 1.508-1.872.11-1.106-.386-2.06-1.11-2.133-.722-.072-1.398.767-1.508 1.872ZM52.856 22.13c.274.636 1.336.79 2.372.345 1.035-.445 1.653-1.321 1.379-1.957-.275-.635-1.337-.79-2.373-.344-1.035.445-1.653 1.321-1.378 1.957ZM61.65 20.053c2 1.327 4.283 1.409 5.1.183.817-1.226-.142-3.296-2.142-4.623-2-1.326-4.284-1.408-5.1-.182-.817 1.226.142 3.295 2.142 4.622Z"/>
  <path fill="#2A5EBC"
        d="M57.523 22.098c.774.513 1.733.431 2.142-.183.41-.614.114-1.528-.66-2.042-.774-.514-1.734-.432-2.143.182-.41.615-.113 1.529.66 2.043ZM114.296 76.961c.827.549 1.852.461 2.289-.195.437-.657.122-1.634-.705-2.182-.827-.549-1.852-.461-2.29.195-.437.657-.121 1.634.706 2.182ZM76.135 66.99c.52.873 2.098.895 3.522.05 1.425-.847 2.157-2.24 1.636-3.114-.52-.873-2.098-.895-3.522-.05-1.425.847-2.157 2.24-1.636 3.114ZM97.4 77.84c.983.482 2.021.385 2.317-.218.297-.602-.26-1.481-1.244-1.964-.984-.482-2.022-.385-2.318.218-.297.602.26 1.481 1.244 1.964ZM92.256 103.523c.438.623 1.67.516 2.75-.241 1.08-.756 1.602-1.874 1.164-2.497-.438-.624-1.67-.516-2.75.24s-1.602 1.874-1.164 2.498ZM111.833 92.21c.569.124 1.2-.55 1.411-1.505.21-.956-.08-1.831-.649-1.956-.569-.125-1.2.549-1.411 1.504-.21.956.08 1.832.649 1.956ZM90.187 92.434c-.444 2.525.334 4.77 1.739 5.017 1.404.246 2.903-1.6 3.347-4.125.445-2.524-.333-4.77-1.738-5.016-1.405-.247-2.903 1.6-3.348 4.124ZM94.38 81.56c.876.429 1.838.264 2.15-.368.31-.632-.147-1.493-1.022-1.922-.876-.43-1.838-.265-2.15.367-.31.632.147 1.493 1.022 1.922ZM108.523 99.452c.608.359 1.556-.121 2.119-1.071.562-.95.525-2.01-.083-2.37-.608-.357-1.556.122-2.119 1.073-.562.95-.525 2.01.083 2.368ZM63.242 69.036c1.817.89 3.866.443 4.575-.999.71-1.442-.187-3.333-2.003-4.224-1.817-.89-3.865-.443-4.575.999s.187 3.333 2.004 4.224ZM100.153 97.213c.036 1.166.684 2.092 1.446 2.069.763-.024 1.352-.988 1.316-2.154-.037-1.166-.684-2.093-1.447-2.07-.763.024-1.351.989-1.315 2.155ZM78.261 106.631c.373.625 1.5.64 2.518.036 1.018-.605 1.542-1.602 1.17-2.226-.373-.624-1.5-.64-2.519-.035-1.018.604-1.541 1.601-1.169 2.225ZM75.057 82.25c1.016.498 2.09.396 2.396-.228.307-.624-.268-1.533-1.284-2.032-1.017-.498-2.09-.396-2.397.227-.307.624.268 1.534 1.285 2.032ZM151.399 81.999c1.002.491 2.06.392 2.362-.222.302-.614-.266-1.51-1.268-2.001-1.002-.492-2.06-.392-2.362.221-.302.614.265 1.51 1.268 2.002ZM70.252 105.89c.606.862 2.307.714 3.8-.33 1.492-1.044 2.21-2.589 1.605-3.451-.606-.862-2.306-.715-3.799.329-1.492 1.045-2.211 2.59-1.606 3.452ZM49.195 72.48c2.291.718 4.473.27 4.872-1 .4-1.271-1.135-2.882-3.426-3.6-2.292-.717-4.473-.269-4.872 1.002-.4 1.27 1.134 2.881 3.426 3.599ZM33.637 73.012c.835.41 1.752.251 2.05-.353.297-.603-.139-1.425-.973-1.834-.834-.409-1.752-.25-2.05.353-.296.604.139 1.425.973 1.834ZM89.675 106.309c.592.349 1.514-.118 2.061-1.042.547-.924.511-1.956-.08-2.305-.592-.348-1.515.118-2.061 1.043-.547.924-.511 1.955.08 2.304ZM50.361 86.925c.46.653 1.747.542 2.877-.249 1.13-.79 1.674-1.961 1.215-2.614-.459-.653-1.747-.542-2.877.249-1.13.79-1.674 1.96-1.215 2.614Z"/>
  <path fill="#2A5EBC"
        d="M47.85 89.692c.606.357 1.552-.121 2.113-1.068.56-.948.523-2.005-.083-2.363-.607-.357-1.553.121-2.113 1.068-.561.948-.524 2.005.083 2.363ZM9.997 83.565c.437.62 1.663.513 2.74-.24 1.076-.754 1.596-1.868 1.16-2.488-.437-.621-1.663-.514-2.74.24-1.077.753-1.596 1.867-1.16 2.488ZM7.41 86.368c.596.352 1.525-.117 2.075-1.047.55-.93.514-1.968-.082-2.319-.596-.35-1.524.118-2.074 1.048-.55.93-.514 1.968.082 2.319ZM81.922 71.714c.441.627 1.68.52 2.767-.241 1.087-.76 1.611-1.886 1.17-2.513-.44-.628-1.679-.52-2.766.241-1.087.76-1.611 1.886-1.17 2.513ZM79.358 74.495c.593.35 1.517-.118 2.065-1.043.548-.926.511-1.96-.082-2.309-.593-.349-1.517.118-2.065 1.043-.548.926-.511 1.96.082 2.309ZM148.553 44.739c.424.603 1.613.5 2.656-.23 1.043-.73 1.545-1.81 1.121-2.413-.423-.602-1.612-.5-2.655.23-1.043.73-1.545 1.81-1.122 2.413ZM145.881 47.611c.605.357 1.548-.12 2.108-1.064.559-.945.521-2-.084-2.356-.605-.357-1.549.12-2.108 1.064-.559.945-.521 2 .084 2.356ZM86.25 88.496c.975.922 2.244 1.165 2.835.543.59-.622.277-1.873-.698-2.795-.976-.922-2.245-1.166-2.835-.544-.59.622-.278 1.873.698 2.796ZM88.534 78.566c1.538.754 3.271.376 3.872-.845.601-1.22-.158-2.82-1.696-3.575-1.537-.753-3.271-.375-3.872.845-.6 1.22.159 2.821 1.696 3.575ZM77.602 90.403c.324.76 1.44 1.014 2.492.567 1.053-.447 1.643-1.425 1.319-2.186-.325-.76-1.44-1.014-2.493-.567-1.052.447-1.643 1.425-1.319 2.186ZM60.384 113.986c.05 1.611.944 2.891 1.996 2.858 1.053-.033 1.866-1.365 1.816-2.975-.05-1.611-.944-2.891-1.997-2.858-1.052.033-1.865 1.365-1.815 2.975ZM167.483 37.155c.34.648 1.524.7 2.646.115 1.122-.585 1.757-1.585 1.417-2.233-.339-.648-1.524-.7-2.646-.115-1.122.585-1.756 1.585-1.417 2.233ZM79.427 121.254c.135.734.61 1.261 1.061 1.178.451-.083.707-.745.572-1.478-.136-.733-.61-1.26-1.062-1.177-.45.082-.706.744-.57 1.477ZM69.61 120.043c.528.19 1.217-.376 1.538-1.265.322-.889.154-1.764-.374-1.954-.528-.19-1.217.376-1.538 1.265-.322.889-.154 1.764.374 1.954ZM86.261 121.638c.755.237 1.713-.671 2.14-2.027.426-1.357.16-2.648-.596-2.884-.755-.237-1.713.671-2.14 2.027-.426 1.357-.16 2.648.596 2.884ZM85.006 129.71c.821.545 1.808.506 2.203-.087.395-.593.05-1.516-.772-2.061-.822-.545-1.808-.506-2.204.087-.395.593-.049 1.516.773 2.061ZM71.674 116.127c.534.417 1.496.078 2.15-.756.654-.835.751-1.848.218-2.265-.534-.416-1.496-.077-2.15.757-.654.834-.751 1.848-.218 2.264ZM126.887 82.35c.862.572 1.896.531 2.31-.091.415-.622.053-1.59-.809-2.161-.861-.572-1.895-.53-2.31.092-.414.622-.052 1.59.809 2.16ZM122.131 85.596c.315 1.127 1.837 1.687 3.398 1.252 1.562-.435 2.572-1.701 2.256-2.828-.315-1.127-1.836-1.687-3.398-1.252-1.561.435-2.571 1.701-2.256 2.828ZM157.253 25.15c.354.818 1.722 1.016 3.056.443 1.335-.574 2.13-1.703 1.777-2.521-.353-.819-1.722-1.017-3.056-.444-1.335.574-2.13 1.703-1.777 2.521ZM75.508 97.197c.89.438 1.87.272 2.188-.372.317-.643-.147-1.52-1.038-1.957-.89-.438-1.87-.272-2.188.371-.317.644.147 1.52 1.038 1.958ZM72.081 94.38c.27.626 1.316.777 2.335.339 1.02-.439 1.628-1.3 1.359-1.926-.27-.625-1.316-.777-2.336-.338-1.02.438-1.627 1.3-1.358 1.926ZM36.57 29.535c.888.435 1.865.268 2.18-.374.317-.643-.147-1.516-1.035-1.952-.889-.435-1.865-.268-2.181.374-.316.643.147 1.516 1.036 1.952ZM32.994 26.782c.272.631 1.328.784 2.358.341s1.644-1.313 1.372-1.944c-.273-.63-1.328-.783-2.358-.34-1.03.442-1.645 1.313-1.372 1.944ZM101.832 131.343c1.249.829 2.676.88 3.186.114.511-.766-.089-2.059-1.339-2.888-1.249-.829-2.676-.88-3.186-.114-.51.766.089 2.059 1.339 2.888ZM107.594 111.661c.399.762 1.791.822 3.11.134 1.319-.687 2.064-1.862 1.666-2.624-.399-.762-1.792-.822-3.111-.135-1.318.688-2.064 1.863-1.665 2.625ZM92.248 120.95c1.122.404 2.585-.799 3.268-2.687.683-1.888.327-3.746-.795-4.15-1.122-.404-2.585.799-3.268 2.687-.683 1.888-.327 3.746.795 4.15ZM98.15 108.941c.683.782 2.348.449 3.718-.743 1.371-1.192 1.928-2.792 1.245-3.573-.682-.782-2.347-.449-3.717.743s-1.928 2.792-1.245 3.573ZM111.629 117.453c.869.272 1.971-.773 2.461-2.333.491-1.56.184-3.046-.685-3.318-.869-.272-1.971.773-2.461 2.333-.49 1.56-.184 3.046.685 3.318ZM135.055 9.175c.373.713 1.676.769 2.911.125 1.234-.643 1.932-1.743 1.559-2.455-.373-.713-1.676-.77-2.911-.126-1.234.644-1.932 1.743-1.559 2.456ZM138.877 15.272c.935.293 2.122-.834 2.651-2.517.529-1.682.199-3.284-.736-3.577-.935-.292-2.122.834-2.651 2.517-.529 1.683-.2 3.284.736 3.577ZM103.447 127.113c1.568 1.04 3.451.964 4.206-.169.755-1.134.097-2.896-1.472-3.937-1.568-1.04-3.451-.964-4.206.17-.755 1.133-.097 2.896 1.472 3.936ZM95.018 111.386c.503.393 1.411.074 2.028-.713.616-.787.708-1.744.204-2.137-.503-.393-1.411-.073-2.028.714-.616.786-.708 1.743-.204 2.136ZM67.457 108.762c.505.394 1.415.075 2.032-.713.618-.788.71-1.747.204-2.141-.504-.394-1.414-.074-2.032.714-.618.788-.709 1.746-.204 2.14ZM91.51 126.881c.86 1.057 2.109 1.469 2.787.919.678-.551.53-1.854-.331-2.912-.862-1.057-2.11-1.469-2.788-.919-.679.551-.53 1.854.331 2.912ZM97.923 121.991c.268.957 1.56 1.434 2.886 1.064 1.327-.369 2.184-1.445 1.916-2.403-.267-.957-1.56-1.434-2.886-1.064-1.326.369-2.184 1.445-1.916 2.403ZM33.944 37.349c1.576 1.046 3.469.97 4.227-.17.76-1.138.097-2.91-1.48-3.955-1.575-1.045-3.468-.97-4.227.17-.758 1.139-.096 2.91 1.48 3.955ZM28.269 32.262c.286 1.022 1.665 1.53 3.08 1.136 1.414-.394 2.33-1.542 2.043-2.564-.286-1.021-1.664-1.53-3.08-1.135-1.414.394-2.329 1.542-2.043 2.563ZM69.09 89.868c1.522 1.01 3.35.937 4.082-.162.732-1.1.092-2.81-1.43-3.819-1.521-1.01-3.349-.937-4.081.163-.733 1.1-.093 2.809 1.43 3.819ZM63.41 84.842c.282 1.003 1.635 1.502 3.024 1.115s2.287-1.514 2.006-2.517c-.28-1.003-1.634-1.503-3.023-1.116-1.389.388-2.287 1.515-2.006 2.518ZM113.891 86.667c1.544 1.025 3.399.95 4.143-.167.744-1.116.095-2.852-1.449-3.876-1.545-1.025-3.4-.95-4.143.166-.744 1.117-.095 2.852 1.449 3.877ZM108.407 81.563c.262.933 1.521 1.397 2.814 1.037 1.292-.36 2.128-1.408 1.867-2.342-.261-.933-1.521-1.397-2.813-1.037-1.293.36-2.129 1.409-1.868 2.342ZM101.587 91.673c1.576 1.045 3.469.97 4.228-.17.759-1.138.096-2.91-1.48-3.955s-3.468-.97-4.227.17c-.759 1.138-.097 2.91 1.479 3.955ZM96.11 86.531c.264.941 1.534 1.41 2.837 1.046 1.303-.363 2.146-1.42 1.883-2.361-.263-.94-1.533-1.409-2.836-1.046-1.303.364-2.147 1.42-1.883 2.361ZM115.486 50.642c1.12.743 2.465.69 3.005-.12.539-.81.068-2.068-1.052-2.81-1.121-.744-2.466-.69-3.005.119-.539.81-.068 2.068 1.052 2.811ZM132.696 62.544c1.121.743 2.466.69 3.005-.12.539-.81.068-2.068-1.052-2.811-1.12-.743-2.465-.69-3.005.12-.539.81-.068 2.068 1.052 2.811ZM102.106 112.011c-.11 1.104.386 2.057 1.107 2.129.721.071 1.395-.766 1.506-1.87.11-1.104-.386-2.057-1.107-2.129-.722-.072-1.396.765-1.506 1.87ZM125.279 103.693c.82.403 1.721.25 2.014-.342.292-.592-.135-1.399-.955-1.802s-1.721-.249-2.013.343c-.293.592.135 1.399.954 1.801Z"/>
  <path fill="#2A5EBC"
        d="M66.549 82.01c.62.364 1.588-.125 2.161-1.094.574-.97.536-2.051-.084-2.416-.62-.366-1.588.124-2.161 1.093-.574.969-.536 2.05.084 2.416ZM70.59 74.7c.33.63 1.483.68 2.575.11 1.093-.57 1.711-1.542 1.381-2.172-.33-.63-1.482-.68-2.575-.11-1.092.57-1.71 1.542-1.38 2.172ZM65.228 74.113c.58.453 1.626.085 2.337-.822.71-.906.816-2.008.236-2.46-.58-.453-1.626-.085-2.336.822-.71.906-.816 2.008-.237 2.46ZM30.802 88.277c1.87.917 3.977.456 4.708-1.029.731-1.484-.192-3.43-2.061-4.347-1.87-.917-3.977-.456-4.708 1.028-.731 1.485.192 3.432 2.06 4.348ZM33.208 93.15c.538.42 1.51.08 2.17-.763.659-.841.757-1.864.218-2.285-.538-.42-1.51-.078-2.17.763-.659.842-.757 1.865-.218 2.285ZM58.475 73.772c-.108 1.079.377 2.01 1.083 2.08.705.07 1.364-.747 1.472-1.826.108-1.08-.377-2.01-1.083-2.081-.705-.07-1.364.748-1.472 1.827ZM134.14 80.563c.405.577 1.543.478 2.542-.221.999-.699 1.48-1.733 1.075-2.31-.406-.577-1.544-.478-2.543.221-.999.699-1.48 1.733-1.074 2.31ZM118.749 81.578c.416.593 1.586.49 2.614-.229 1.027-.719 1.523-1.782 1.106-2.374-.416-.592-1.586-.49-2.613.23-1.028.718-1.523 1.78-1.107 2.373ZM70.129 61.561c-.252 1.43.189 2.702.984 2.842.795.139 1.644-.907 1.896-2.337.252-1.43-.189-2.702-.984-2.84-.796-.14-1.644.906-1.896 2.335ZM131.462 80.93c.611.36 1.563-.122 2.127-1.074.564-.953.526-2.017-.085-2.377-.61-.36-1.562.12-2.126 1.074-.564.952-.526 2.016.084 2.376ZM118.837 74.39c.051 1.643.962 2.947 2.036 2.914 1.073-.033 1.902-1.392 1.851-3.034-.051-1.642-.962-2.947-2.036-2.913-1.073.033-1.902 1.391-1.851 3.033ZM125.556 112.061c1.508 1 3.229 1.062 3.844.138.616-.924-.107-2.484-1.614-3.484-1.507-1-3.228-1.061-3.844-.137-.616.924.107 2.484 1.614 3.483ZM132.54 87.668c.318.607 1.429.655 2.482.106 1.053-.55 1.649-1.487 1.331-2.094-.318-.608-1.429-.655-2.482-.106-1.053.549-1.649 1.486-1.331 2.094ZM115.106 41.38c.134.723.604 1.244 1.05 1.162.446-.082.699-.736.566-1.46-.134-.723-.604-1.244-1.05-1.162-.446.082-.699.736-.566 1.46ZM130.708 99.342c.81.253 1.837-.721 2.295-2.178.458-1.456.172-2.841-.637-3.095-.81-.254-1.838.721-2.295 2.177-.458 1.457-.173 2.842.637 3.096Z"/>
  <path fill="#2A5EBC"
        d="M130.789 101.689c.798.53 1.756.491 2.141-.087.385-.577.05-1.474-.748-2.004s-1.757-.49-2.142.087c-.384.578-.049 1.475.749 2.004ZM117.012 90.92c.55.43 1.541.081 2.215-.778.673-.86.773-1.904.223-2.333-.55-.429-1.541-.08-2.214.78-.674.858-.774 1.903-.224 2.332ZM151.997 54.766c.577.45 1.618.085 2.324-.817.707-.901.811-1.997.234-2.448-.577-.45-1.618-.085-2.324.817-.707.901-.812 1.998-.234 2.448ZM114.59 105.656c.962 1.18 2.355 1.639 3.112 1.025.757-.614.591-2.069-.37-3.249-.962-1.181-2.355-1.64-3.112-1.026-.757.614-.591 2.069.37 3.25ZM118.863 112.53c.935.621 2.094.522 2.588-.22.495-.742.137-1.847-.798-2.468-.935-.62-2.094-.521-2.589.221-.494.742-.137 1.847.799 2.467ZM125.413 90.852c-.215 2.15.75 4.006 2.155 4.146 1.405.14 2.717-1.49 2.932-3.64.214-2.15-.75-4.007-2.155-4.147-1.405-.14-2.718 1.49-2.932 3.641ZM136.259 94.87c.47.169 1.082-.334 1.368-1.123.285-.79.135-1.566-.335-1.735-.47-.17-1.082.333-1.368 1.122-.285.79-.135 1.566.335 1.735ZM137.504 87.64c.553.431 1.552.08 2.23-.786.678-.865.779-1.917.226-2.349-.554-.432-1.552-.08-2.23.785-.679.865-.78 1.917-.226 2.35ZM137.574 99.76c.846 1.039 2.07 1.443 2.734.904.665-.539.519-1.818-.327-2.856-.845-1.038-2.069-1.442-2.734-.903-.665.54-.518 1.818.327 2.856ZM103.536 104.548c.851.564 1.905.474 2.355-.201.45-.675.124-1.679-.726-2.244-.851-.564-1.905-.474-2.355.201-.45.675-.124 1.679.726 2.244ZM138.127 94.907c.301 1.075 1.751 1.61 3.239 1.196 1.488-.415 2.451-1.622 2.15-2.697-.301-1.075-1.751-1.61-3.239-1.196-1.488.415-2.451 1.623-2.15 2.698ZM62.308 44.64c.804.532 1.769.493 2.156-.089.387-.581.05-1.484-.753-2.017-.803-.533-1.768-.494-2.156.088-.387.581-.05 1.484.753 2.017ZM70.685 36.428c.499.18 1.148-.355 1.452-1.193.303-.839.145-1.664-.354-1.843-.498-.18-1.148.354-1.451 1.193-.303.838-.145 1.663.353 1.843ZM72.025 41.227c.846 1.04 2.072 1.444 2.738.904.666-.54.52-1.82-.327-2.86-.846-1.04-2.072-1.444-2.738-.904-.666.54-.52 1.821.327 2.86ZM72.465 36.402c.313 1.12 1.824 1.676 3.375 1.244 1.55-.432 2.553-1.69 2.24-2.809-.313-1.12-1.824-1.676-3.375-1.244-1.55.432-2.554 1.69-2.24 2.81ZM128.967 44.516c1.027.469 2.386-.299 3.036-1.715.65-1.416.344-2.945-.683-3.414-1.026-.47-2.386.298-3.036 1.714-.65 1.417-.344 2.945.683 3.415ZM111.519 66.822c.498.18 1.148-.354 1.451-1.193.303-.838.145-1.663-.353-1.842-.499-.18-1.149.354-1.452 1.192-.303.839-.145 1.664.354 1.843ZM110.618 62.097c.887 1.09 2.172 1.514 2.87.948.698-.566.545-1.908-.343-2.998-.887-1.09-2.173-1.514-2.871-.948-.698.566-.544 1.909.344 2.998ZM110.793 57.488c.32 1.14 1.859 1.708 3.439 1.267 1.58-.44 2.601-1.721 2.282-2.862-.319-1.14-1.858-1.708-3.438-1.268-1.58.44-2.602 1.722-2.283 2.863ZM123.201 60.924c.315 1.125 1.834 1.685 3.392 1.251 1.559-.434 2.567-1.698 2.252-2.824-.315-1.125-1.834-1.685-3.392-1.25-1.559.434-2.567 1.698-2.252 2.823ZM147.876 83.195c-.116 1.164.407 2.17 1.168 2.245.76.076 1.471-.807 1.587-1.971.117-1.164-.406-2.17-1.167-2.245-.761-.075-1.472.807-1.588 1.971ZM94.854 16.676c.728.132 1.49-.72 1.705-1.9.214-1.18-.203-2.245-.93-2.376-.728-.13-1.49.72-1.705 1.9-.213 1.181.203 2.245.93 2.376ZM99.854 35.494c.3.712 1.485.894 2.645.406 1.161-.487 1.859-1.46 1.558-2.172-.3-.712-1.485-.894-2.645-.406-1.161.488-1.859 1.46-1.558 2.172ZM99.79 45.597c-.18 1.711.48 3.183 1.472 3.286.993.103 1.942-1.2 2.121-2.911.18-1.712-.48-3.183-1.472-3.287-.992-.103-1.942 1.2-2.121 2.912ZM124.742 67.146c.276.655 1.234.878 2.139.498.905-.38 1.414-1.22 1.138-1.875s-1.234-.878-2.139-.498c-.905.38-1.414 1.22-1.138 1.875ZM106.924 32.383c.335 1.003 1.127 1.643 1.77 1.43.642-.214.892-1.2.557-2.204-.335-1.003-1.127-1.643-1.77-1.43-.643.214-.892 1.2-.557 2.204ZM81.669 21.867c.33.785 1.4 1.085 2.389.67.988-.416 1.52-1.389 1.19-2.174-.332-.784-1.401-1.084-2.39-.669-.988.416-1.52 1.389-1.19 2.173ZM71.47 46.902c.28.666 1.389.836 2.477.38 1.088-.455 1.743-1.365 1.463-2.03-.28-.667-1.39-.838-2.478-.382-1.088.456-1.743 1.366-1.463 2.032ZM72.47 67.763c.991 1.221 2.346 1.766 3.025 1.216.679-.549.425-1.984-.567-3.205s-2.347-1.766-3.026-1.216c-.679.55-.425 1.984.567 3.205ZM86.011 49.073c1.47.627 2.944.478 3.29-.331.346-.81-.565-1.974-2.036-2.6-1.47-.627-2.943-.478-3.29.331-.346.81.566 1.974 2.036 2.6ZM135.012 69.648c.527 1.254 2.36 1.68 4.094.955 1.734-.727 2.712-2.331 2.184-3.585-.527-1.254-2.36-1.681-4.093-.955-1.734.727-2.712 2.331-2.185 3.585ZM80.941 42c.086.877 1.27 1.48 2.645 1.347s2.42-.953 2.335-1.83c-.085-.878-1.27-1.481-2.645-1.348-1.375.134-2.42.953-2.335 1.83ZM81.462 47.404c.705.228 1.532-.375 1.847-1.347.315-.97 0-1.943-.705-2.17-.705-.229-1.532.374-1.847 1.346-.315.971 0 1.943.705 2.17ZM131.897 69.502c.786.254 1.709-.42 2.061-1.503.352-1.085 0-2.17-.786-2.424-.787-.254-1.709.419-2.061 1.503-.352 1.085 0 2.17.786 2.424ZM149.255 78.855c.796.257 1.729-.424 2.085-1.52.356-1.096-.001-2.193-.796-2.45-.795-.258-1.728.423-2.084 1.52-.356 1.096 0 2.193.795 2.45ZM71.572 19.804c.412.98 2.042 1.23 3.642.56 1.599-.67 2.562-2.007 2.15-2.986-.412-.98-2.043-1.23-3.642-.56-1.6.669-2.562 2.006-2.15 2.986ZM101.436 58.16c.685.163 1.47-.663 1.752-1.845.283-1.183-.043-2.274-.728-2.437-.685-.163-1.47.663-1.752 1.846-.283 1.182.043 2.273.728 2.436ZM104.309 69.974c.969.57 2.016.59 2.34.044.323-.547-.2-1.453-1.168-2.023-.969-.571-2.016-.59-2.339-.044-.324.546.199 1.452 1.167 2.023ZM135.196 27.698c1.221.659 2.808.092 3.545-1.267.737-1.359.345-2.995-.876-3.654-1.221-.66-2.808-.092-3.545 1.266-.737 1.36-.345 2.995.876 3.655ZM104.426 66.449c.842 1.367 2.142 2.097 2.903 1.63.761-.466.695-1.953-.147-3.32-.843-1.368-2.142-2.098-2.903-1.631-.761.466-.695 1.953.147 3.32ZM96.384 33.363c.852 1.383 2.165 2.12 2.934 1.65.769-.472.702-1.975-.15-3.358-.85-1.382-2.164-2.12-2.933-1.649-.769.472-.702 1.975.15 3.357ZM112.206 71.027c.188.682 1.106 1.025 2.05.766.943-.259 1.556-1.022 1.368-1.704-.188-.682-1.106-1.026-2.049-.767-.944.26-1.557 1.022-1.369 1.705ZM97.304 65.016c.817.865 1.939 1.135 2.504.603.566-.532.362-1.664-.456-2.53-.817-.864-1.938-1.134-2.504-.602-.565.532-.361 1.664.456 2.53ZM119.931 70.558c.689.219 1.538-.512 1.897-1.632.358-1.12.09-2.207-.599-2.426-.69-.22-1.539.51-1.897 1.631-.358 1.121-.09 2.207.599 2.427ZM126.396 74.766c.722.23 1.612-.536 1.988-1.71.376-1.175.095-2.314-.628-2.544-.722-.23-1.612.536-1.988 1.71-.376 1.175-.094 2.314.628 2.544ZM54.484 64.816c.05 1.587.93 2.847 1.97 2.815 1.038-.032 1.84-1.344 1.79-2.931-.049-1.588-.93-2.848-1.969-2.816-1.038.032-1.84 1.345-1.791 2.932ZM76.86 79.918c.046 1.727 1 3.102 2.13 3.07 1.129-.03 2.006-1.455 1.958-3.182-.047-1.726-1-3.101-2.13-3.07-1.13.03-2.006 1.455-1.959 3.182ZM81.482 84.378c.662.211 1.477-.489 1.82-1.562.343-1.074.085-2.115-.577-2.326-.662-.211-1.477.489-1.82 1.562-.343 1.074-.085 2.115.577 2.326ZM59.571 30.926c.051 1.647.965 2.956 2.042 2.922 1.077-.033 1.908-1.395 1.857-3.042-.051-1.648-.966-2.956-2.042-2.922-1.077.033-1.908 1.395-1.857 3.042ZM61.423 27.44c.682.216 1.521-.505 1.875-1.612.354-1.107.088-2.18-.593-2.398-.682-.217-1.521.505-1.875 1.612-.354 1.107-.088 2.18.593 2.397ZM2.004 73.222c.77.455 1.961-.13 2.662-1.307.7-1.178.644-2.502-.125-2.958-.77-.455-1.961.13-2.661 1.307-.7 1.178-.645 2.502.124 2.958ZM4.745 68.89c.374.446 1.267.317 1.996-.29.728-.606 1.015-1.46.641-1.907-.374-.448-1.267-.319-1.996.288-.728.607-1.015 1.46-.641 1.908ZM114.866 39.986c.725.173 1.556-.7 1.855-1.95.299-1.251-.047-2.405-.772-2.577-.725-.173-1.555.7-1.854 1.95-.299 1.251.046 2.405.771 2.577ZM121.403 42.035c.783 1.27 1.99 1.949 2.697 1.515.707-.433.645-1.815-.137-3.085-.783-1.27-1.99-1.949-2.697-1.515-.706.433-.645 1.814.137 3.085ZM101.924 51.535c.193.997.868 1.704 1.506 1.58.639-.123.999-1.03.806-2.027-.194-.996-.868-1.704-1.507-1.58-.638.123-.999 1.031-.805 2.027ZM114.427 63.11c-.03.924 1.118 1.712 2.566 1.76 1.447.048 2.645-.662 2.676-1.586.031-.924-1.117-1.712-2.565-1.76-1.447-.048-2.646.662-2.677 1.586ZM38.886 57.065c.46.166 1.058-.327 1.338-1.1.28-.772.133-1.533-.326-1.699-.46-.165-1.059.327-1.339 1.1-.279.773-.133 1.533.327 1.699ZM37.91 52.482c.908 1.114 2.222 1.547 2.936.968s.557-1.951-.35-3.066c-.908-1.114-2.222-1.547-2.936-.968s-.557 1.951.35 3.066ZM41.769 53.462c-.031.916 1.107 1.697 2.542 1.745 1.435.048 2.623-.656 2.653-1.572.031-.916-1.107-1.698-2.542-1.745-1.435-.048-2.623.656-2.653 1.572ZM116.027 100.909c.496.179 1.142-.353 1.443-1.187.302-.833.145-1.654-.351-1.832-.495-.179-1.141.353-1.443 1.186-.301.834-.144 1.655.351 1.833ZM115.067 96.24c.925 1.136 2.266 1.578 2.995.986.729-.59.569-1.991-.356-3.127-.926-1.136-2.267-1.579-2.996-.987-.728.59-.569 1.991.357 3.127ZM118.943 97.207c-.031.919 1.111 1.703 2.551 1.75 1.44.048 2.631-.658 2.662-1.578.031-.919-1.111-1.703-2.551-1.75-1.44-.048-2.631.658-2.662 1.578ZM30.678 63.978c.86 1.055 2.104 1.466 2.78.918.675-.548.526-1.848-.333-2.903-.86-1.055-2.104-1.466-2.78-.918-.676.548-.527 1.848.333 2.903ZM30.995 59.35c.299 1.07 1.741 1.601 3.222 1.189 1.48-.413 2.438-1.614 2.139-2.683-.3-1.069-1.742-1.6-3.222-1.188-1.48.413-2.438 1.614-2.14 2.683ZM26.247 66.751c.8 1.298 2.032 1.99 2.754 1.548.722-.443.659-1.853-.14-3.15-.8-1.298-2.032-1.99-2.754-1.548-.721.442-.659 1.853.14 3.15ZM34.416 65.013c-.03.934 1.13 1.73 2.594 1.778 1.463.049 2.675-.668 2.706-1.602.03-.933-1.13-1.73-2.593-1.778-1.464-.049-2.675.669-2.706 1.602ZM119.317 55.773c1.002.475 2.346-.26 3.004-1.642.657-1.381.377-2.886-.624-3.36-1.002-.475-2.347.26-3.004 1.642-.657 1.381-.378 2.886.624 3.36ZM111.671 46.576c.715.756 1.696.992 2.191.526.495-.466.317-1.457-.398-2.213-.715-.757-1.696-.993-2.191-.527-.495.466-.317 1.457.398 2.214ZM147.213 17.09c.696.126 1.426-.69 1.631-1.82.205-1.131-.193-2.15-.89-2.275-.696-.126-1.426.69-1.631 1.82-.205 1.131.193 2.15.89 2.275ZM139.671 23.071c.253.598 1.248.75 2.223.341.975-.41 1.561-1.227 1.309-1.825-.253-.598-1.248-.75-2.223-.341-.975.41-1.561 1.227-1.309 1.825ZM157.613 44c-.129 1.236.346 2.298 1.063 2.373.716.074 1.401-.867 1.531-2.103.129-1.236-.347-2.298-1.063-2.373-.716-.075-1.402.867-1.531 2.102ZM152.107 36.775c1.422.606 2.847.464 3.181-.318.334-.782-.548-1.907-1.97-2.513-1.422-.606-2.847-.463-3.181.319-.335.781.547 1.906 1.97 2.512ZM147.169 24.535c.887 1.192 2.181 1.732 2.891 1.206.709-.526.565-1.918-.323-3.11-.887-1.192-2.181-1.732-2.89-1.207-.71.526-.566 1.919.322 3.11ZM145.521 36.138c.926.354 1.997-.195 2.394-1.227.396-1.032-.034-2.155-.959-2.51-.926-.353-1.998.196-2.394 1.228-.396 1.032.033 2.155.959 2.509ZM152.831 41.944c.992 1.221 2.347 1.766 3.026 1.216.679-.549.425-1.984-.567-3.205s-2.347-1.766-3.026-1.216c-.679.549-.425 1.984.567 3.205Z"/>
  <path fill="#2A5EBC"
        d="M142.615 32.305c.276.652 1.23.874 2.132.495.902-.38 1.41-1.215 1.135-1.867-.275-.653-1.23-.874-2.132-.495-.902.38-1.41 1.215-1.135 1.867ZM115.988 26.774c.261.617 1.164.827 2.018.468.853-.359 1.334-1.15 1.074-1.767s-1.164-.827-2.017-.468c-.854.359-1.335 1.15-1.075 1.767ZM142.483 73.205c.353 1.057 1.188 1.732 1.865 1.507.678-.226.94-1.265.587-2.323-.352-1.057-1.188-1.731-1.865-1.506-.677.225-.94 1.264-.587 2.322ZM151.075 19.913c.093.954 1.381 1.61 2.876 1.466 1.495-.145 2.632-1.037 2.539-1.992-.093-.955-1.381-1.61-2.876-1.466-1.495.145-2.632 1.037-2.539 1.992ZM149.725 30.598c1.144.37 2.486-.61 2.998-2.188.513-1.578 0-3.157-1.143-3.527-1.144-.37-2.487.61-2.999 2.188-.512 1.578 0 3.158 1.144 3.527ZM161.116 41.665c1.544 1.259 3.463 1.464 4.286.459.823-1.006.238-2.841-1.307-4.1-1.544-1.258-3.463-1.464-4.286-.458-.823 1.005-.237 2.84 1.307 4.1ZM85.048 99.42c.469.897 1.377 1.349 2.028 1.01.651-.339.799-1.34.33-2.238-.47-.896-1.377-1.348-2.028-1.009-.651.34-.8 1.341-.33 2.238ZM82.848 95.582c.789 1.124 1.99 1.643 2.68 1.16.691-.483.612-1.786-.177-2.91-.79-1.124-1.99-1.644-2.68-1.16-.692.483-.612 1.786.177 2.91ZM145.294 63.398c-.138 1.318.369 2.451 1.133 2.53.764.08 1.494-.924 1.632-2.241.138-1.318-.369-2.45-1.132-2.53-.764-.08-1.495.924-1.633 2.241ZM141.503 53.115c1.43.609 2.893.392 3.268-.484.375-.877-.48-2.081-1.91-2.69-1.43-.61-2.893-.392-3.268.484-.375.877.481 2.08 1.91 2.69ZM139.165 59.94c1.407 1.733 3.331 2.505 4.295 1.724.965-.78.606-2.818-.801-4.55-1.408-1.733-3.331-2.505-4.296-1.724-.965.78-.606 2.818.802 4.55ZM66.232 28.978c.408.97 2.021 1.218 3.603.555 1.582-.662 2.534-1.985 2.126-2.955-.408-.969-2.02-1.217-3.603-.555-1.582.663-2.533 1.986-2.126 2.955ZM151.808 49.77c.347 1.04 1.167 1.703 1.833 1.482.665-.221.923-1.243.576-2.282-.347-1.04-1.168-1.703-1.833-1.482-.665.221-.923 1.243-.576 2.282ZM140.607 40.59c.094.964 1.395 1.627 2.906 1.48 1.511-.147 2.659-1.047 2.565-2.011-.094-.965-1.395-1.627-2.906-1.48-1.511.146-2.659 1.046-2.565 2.01ZM49.916 54.648c.57.445 1.599.082 2.297-.81.699-.89.803-1.974.233-2.419-.57-.444-1.598-.082-2.296.81-.699.891-.803 1.974-.234 2.42ZM56.372 57.201c.951.364 2.052-.2 2.459-1.26.407-1.06-.034-2.214-.985-2.578-.951-.364-2.052.2-2.459 1.26-.407 1.06.034 2.215.985 2.578Z"/>
  <path fill="#2A5EBC"
        d="M53.52 53.305c.268.636 1.199.852 2.079.482.88-.37 1.376-1.185 1.108-1.821-.269-.636-1.2-.852-2.08-.483-.88.37-1.376 1.186-1.108 1.822ZM131.36 38.462c.29.687 1.226.95 2.092.586.865-.364 1.332-1.216 1.042-1.903-.29-.687-1.227-.95-2.092-.586-.866.364-1.332 1.216-1.042 1.903ZM47.582 45.611c.303 1.535 1.45 2.601 2.561 2.382 1.112-.22 1.766-1.64 1.462-3.175-.303-1.534-1.45-2.6-2.561-2.381-1.112.219-1.766 1.64-1.462 3.174ZM48.484 41.738c.67.408 1.63.057 2.144-.783.514-.84.387-1.853-.283-2.261-.67-.408-1.63-.058-2.144.783-.514.84-.387 1.853.283 2.26ZM138.778 47.321c.709.23 1.541-.377 1.859-1.355.317-.977-.001-1.955-.71-2.184-.71-.23-1.542.377-1.859 1.354-.317.978.001 1.956.71 2.185ZM147.936 56.336c.853.695 1.913.808 2.367.253.455-.556.132-1.57-.721-2.264-.853-.695-1.912-.808-2.367-.253-.454.556-.132 1.57.721 2.264ZM150.189 63.638c.997.237 2.138-.963 2.549-2.682.411-1.718-.063-3.303-1.06-3.541-.997-.237-2.138.963-2.549 2.681-.411 1.719.064 3.304 1.06 3.542ZM153.29 68.359c.004 2.34 1.091 4.235 2.43 4.233 1.339-.002 2.422-1.9 2.419-4.24-.003-2.34-1.091-4.234-2.43-4.233-1.339.002-2.422 1.9-2.419 4.24ZM86.165 37.543c-.128 1.219.342 2.267 1.048 2.34.707.074 1.384-.854 1.511-2.073.128-1.218-.342-2.266-1.048-2.34-.707-.073-1.384.855-1.511 2.073ZM80.475 34.905c1.553 1.912 3.675 2.765 4.738 1.905 1.064-.86.666-3.108-.887-5.02-1.554-1.912-3.675-2.765-4.738-1.905-1.064.86-.666 3.108.887 5.02ZM90.96 37.753c.992.236 2.128-.959 2.537-2.67.41-1.71-.063-3.289-1.055-3.525-.992-.236-2.128.959-2.538 2.67-.409 1.71.064 3.289 1.056 3.525ZM94.048 42.493c.003 2.346 1.094 4.247 2.438 4.245 1.344-.002 2.43-1.905 2.427-4.251-.003-2.346-1.094-4.247-2.438-4.245-1.344.002-2.43 1.905-2.427 4.251ZM148.724 69.54c.23 1.184 1.03 2.023 1.787 1.877.757-.146 1.184-1.224.954-2.407-.23-1.182-1.03-2.022-1.787-1.876-.756.147-1.184 1.224-.954 2.407ZM132.311 56.093c1.088.535 2.238.428 2.567-.24.33-.667-.286-1.642-1.374-2.177-1.089-.535-2.238-.428-2.568.24-.329.667.286 1.642 1.375 2.177ZM161.926 23.138c.362.838 1.762 1.04 3.129.453 1.366-.588 2.181-1.743 1.82-2.58-.362-.837-1.763-1.04-3.129-.453-1.367.588-2.181 1.743-1.82 2.58ZM175.961 22.031c.991.658 2.123.698 2.527.09.405-.608-.07-1.633-1.061-2.29-.99-.658-2.122-.698-2.527-.09-.404.608.071 1.633 1.061 2.29ZM162.978 15.803c.894 1.098 2.19 1.526 2.894.954.705-.57.55-1.924-.344-3.022-.895-1.098-2.191-1.526-2.895-.954-.704.57-.55 1.924.345 3.022ZM171.073 27.34c1.629 1.08 3.537 1.075 4.261-.012.725-1.088-.008-2.846-1.637-3.926s-3.537-1.075-4.261.012c-.725 1.088.008 2.846 1.637 3.926ZM94.228 64.36c.87.426 1.85.212 2.19-.479.34-.69-.09-1.596-.96-2.022-.87-.427-1.85-.213-2.19.478-.34.69.09 1.596.96 2.022Z"/>
  <path fill="#2A5EBC"
        d="M88.633 65.116c1.622 1.076 3.522 1.07 4.244-.014.722-1.083-.008-2.834-1.63-3.91-1.622-1.077-3.522-1.07-4.244.013-.722 1.084.008 2.835 1.63 3.91ZM170.679 15.389c.195.698 1.138 1.046 2.105.776.967-.27 1.593-1.054 1.397-1.752-.195-.699-1.138-1.046-2.105-.777-.967.27-1.592 1.055-1.397 1.753ZM130.317 51.256c.201 1.035.901 1.77 1.563 1.642.662-.128 1.035-1.071.834-2.106-.201-1.035-.901-1.77-1.562-1.642-.662.128-1.036 1.07-.835 2.106ZM160.065 50.97c.795.842 1.886 1.105 2.437.587.55-.518.352-1.62-.444-2.462-.795-.842-1.886-1.105-2.437-.587-.55.518-.352 1.62.444 2.462ZM103.066 15.412c-.143 1.365.383 2.539 1.173 2.621.791.083 1.548-.957 1.691-2.323.143-1.365-.382-2.538-1.173-2.62-.791-.083-1.548.957-1.691 2.322ZM92.702 10.226c1.067 1.313 2.524 1.899 3.255 1.307.73-.59.458-2.135-.609-3.448-1.067-1.313-2.524-1.899-3.255-1.307-.73.59-.458 2.135.61 3.448ZM106.738 9.843c.333.999 1.122 1.636 1.762 1.424.639-.213.888-1.195.554-2.194-.333-.999-1.122-1.636-1.762-1.423-.639.212-.888 1.195-.554 2.193ZM100.694 8.588c.911.742 2.041.864 2.526.271.485-.592.139-1.673-.771-2.415s-2.041-.864-2.526-.271c-.485.592-.14 1.673.771 2.415ZM126.806 29.656c.209.758 1.383 1.098 2.622.758 1.239-.34 2.074-1.23 1.865-1.99-.209-.758-1.383-1.097-2.622-.757-1.239.34-2.074 1.23-1.865 1.989ZM110.458 12.524c.692.165 1.483-.668 1.768-1.86.285-1.191-.044-2.29-.735-2.455-.692-.165-1.483.668-1.768 1.86-.285 1.191.044 2.29.735 2.455ZM108.493 24.706c.948 1.697 2.535 2.616 3.545 2.054 1.01-.562 1.061-2.393.113-4.089-.948-1.696-2.535-2.616-3.545-2.054-1.01.562-1.061 2.393-.113 4.09ZM122.96 30.934c.974.526 2.417-.254 3.225-1.742.807-1.488.672-3.121-.302-3.647-.974-.526-2.417.254-3.225 1.742-.807 1.489-.672 3.121.302 3.647ZM163.887 32.291c.201.731 1.332 1.059 2.525.731 1.193-.327 1.997-1.185 1.795-1.916-.201-.731-1.332-1.059-2.525-.731-1.193.327-1.997 1.185-1.795 1.916ZM160.02 33.478c.933.504 2.317-.244 3.091-1.67.774-1.428.645-2.993-.289-3.497-.933-.504-2.317.244-3.091 1.67-.774 1.428-.645 2.993.289 3.497ZM119.758 14.35c.773 1.254 1.964 1.924 2.661 1.496.698-.428.637-1.791-.136-3.045-.772-1.255-1.964-1.925-2.661-1.497-.697.428-.636 1.791.136 3.045ZM122.97 21.055c.377 1.367 2.216 2.055 4.108 1.536 1.892-.52 3.121-2.049 2.744-3.417-.377-1.367-2.216-2.055-4.108-1.536-1.892.52-3.121 2.049-2.744 3.417ZM106.054 18.577c.239 1.23 1.07 2.102 1.856 1.95.787-.152 1.23-1.272.992-2.501-.239-1.23-1.07-2.103-1.857-1.95-.786.152-1.23 1.272-.991 2.5ZM115.325 30.73c-.03.91 1.099 1.686 2.523 1.733 1.424.047 2.603-.652 2.633-1.562.03-.91-1.099-1.685-2.523-1.733-1.424-.047-2.603.652-2.633 1.562ZM122.487 37.037c.39 1.416 2.154 2.168 3.939 1.678 1.785-.49 2.915-2.035 2.525-3.452-.39-1.416-2.154-2.167-3.939-1.678-1.785.49-2.915 2.035-2.525 3.452ZM41.055 47.116c.206.748 1.362 1.083 2.583.748 1.22-.335 2.043-1.213 1.837-1.96-.206-.749-1.363-1.084-2.583-.749-1.22.335-2.043 1.213-1.837 1.961ZM37.188 48.388c.965.521 2.397-.252 3.197-1.728.8-1.476.667-3.095-.298-3.616-.966-.522-2.397.252-3.198 1.728-.8 1.475-.666 3.094.3 3.616ZM40.454 61.472c.385 1.398 2.125 2.14 3.885 1.657 1.76-.483 2.876-2.009 2.49-3.407-.385-1.398-2.124-2.14-3.885-1.657-1.76.483-2.875 2.009-2.49 3.407Z"/>
  <path fill="#2A5EBC"
        d="M115.929 17.119c1.351 1.43 3.205 1.877 4.14.997.934-.88.597-2.752-.755-4.183-1.351-1.43-3.205-1.877-4.14-.997-.935.88-.597 2.752.755 4.183ZM135.052 21.387c.677.216 1.511-.5 1.863-1.6.351-1.1.087-2.165-.59-2.381-.677-.215-1.511.501-1.862 1.6-.352 1.1-.088 2.166.589 2.381ZM97.71 3.613c.879 1.427 2.235 2.189 3.03 1.701.795-.487.726-2.039-.152-3.466-.88-1.426-2.236-2.188-3.03-1.7-.795.487-.727 2.038.152 3.465ZM127.195 12.941c-.031.907 1.098 1.68 2.52 1.727 1.422.048 2.599-.649 2.63-1.556.03-.906-1.098-1.68-2.521-1.726-1.422-.048-2.599.649-2.629 1.556ZM139.407 16.961c.203.736 1.119 1.126 2.046.872.927-.255 1.514-1.057 1.311-1.793-.203-.735-1.119-1.126-2.045-.871-.927.254-1.514 1.056-1.312 1.792ZM104.093 39.836c.412 1.496 2.273 2.29 4.155 1.773 1.883-.517 3.075-2.148 2.663-3.644-.412-1.496-2.272-2.29-4.155-1.773-1.883.517-3.075 2.148-2.663 3.644ZM70.653 54.262c-.185 1.771.497 3.294 1.524 3.401 1.027.107 2.01-1.242 2.196-3.013.185-1.771-.497-3.294-1.524-3.401-1.027-.107-2.01 1.242-2.196 3.013ZM73.35 50.844c.821.67 1.842.78 2.28.245.437-.535.126-1.511-.696-2.181-.822-.67-1.843-.78-2.28-.245-.438.534-.126 1.51.696 2.18ZM78.058 124.567c-.126 1.197.335 2.225 1.03 2.298.694.072 1.358-.839 1.484-2.036.125-1.196-.336-2.225-1.03-2.297-.695-.073-1.36.838-1.484 2.035ZM106.671 53.494c.077.746.511 1.313.97 1.267.459-.047.77-.69.693-1.436-.076-.747-.51-1.314-.969-1.268-.459.047-.77.69-.694 1.437ZM108.343 52.006c.671.125 1.39-.711 1.606-1.867.217-1.156-.151-2.195-.822-2.32-.67-.125-1.389.71-1.606 1.867-.216 1.156.152 2.195.822 2.32ZM142.259 80.55c.223.798 1.296 1.196 2.396.89 1.1-.308 1.811-1.203 1.588-2-.223-.797-1.296-1.195-2.396-.888-1.1.306-1.811 1.201-1.588 1.998Z"/>
  <path fill="#2A5EBC"
        d="M139.258 82.405c1.091.353 2.372-.58 2.86-2.085s0-3.01-1.091-3.363c-1.092-.352-2.372.581-2.86 2.086-.488 1.504 0 3.01 1.091 3.362ZM79.527 54.153c1.129.504 2.28.383 2.572-.268.292-.652-.386-1.589-1.514-2.092-1.128-.503-2.28-.383-2.572.269-.292.652.386 1.588 1.514 2.091ZM82.722 61.482c.796.755 1.887.898 2.436.32.55-.577.35-1.657-.447-2.41-.796-.755-1.886-.899-2.436-.321-.55.577-.35 1.657.447 2.411ZM79.061 57.398c.259 1.125 1.73 1.747 3.288 1.39 1.557-.356 2.609-1.557 2.35-2.682-.259-1.125-1.73-1.747-3.288-1.39-1.556.356-2.609 1.557-2.35 2.682ZM99.582 79.229c.231.828 1.343 1.242 2.483.924 1.14-.318 1.876-1.247 1.644-2.074-.232-.828-1.343-1.242-2.483-.924-1.14.317-1.876 1.246-1.644 2.074ZM104.44 80.764c.74.783 1.755 1.027 2.268.545.512-.482.328-1.508-.412-2.291-.74-.784-1.755-1.028-2.268-.545-.512.482-.328 1.508.412 2.29ZM152.857 12.037c1.564 1.037 3.443.961 4.197-.17.753-1.13.096-2.889-1.468-3.926-1.564-1.038-3.443-.962-4.196.169-.754 1.131-.097 2.889 1.467 3.927ZM147.31 6.926c.271.968 1.577 1.45 2.916 1.077 1.34-.374 2.207-1.461 1.936-2.43-.271-.967-1.577-1.45-2.917-1.076-1.34.373-2.206 1.461-1.935 2.43ZM123.498 50.388c.744.787 1.765 1.033 2.279.549.515-.484.329-1.516-.415-2.303-.745-.788-1.765-1.034-2.28-.55-.515.484-.329 1.516.416 2.303ZM95.236 24.752c.266.95 1.543 1.424 2.852 1.059 1.31-.365 2.155-1.431 1.89-2.38-.266-.95-1.543-1.425-2.853-1.06-1.309.365-2.155 1.43-1.889 2.38Z"/>
  <path fill="#2A5EBC"
        d="M91.936 26.923c1.263.409 2.745-.673 3.31-2.415.566-1.743 0-3.486-1.263-3.895-1.263-.408-2.745.674-3.31 2.416-.566 1.743 0 3.486 1.263 3.894ZM101.201 26.685c.901.954 2.137 1.251 2.76.665.623-.587.398-1.835-.503-2.789-.901-.953-2.137-1.251-2.76-.665-.623.587-.398 1.835.503 2.789ZM43.183 78.091c.676.122 1.385-.67 1.584-1.768.2-1.098-.187-2.087-.863-2.209-.676-.122-1.386.67-1.584 1.768-.2 1.098.187 2.087.863 2.209ZM36.534 85.038c.276.654 1.364.82 2.43.373 1.065-.448 1.706-1.34 1.43-1.994-.276-.654-1.364-.82-2.43-.373-1.065.448-1.706 1.34-1.43 1.995ZM53.12 93.269c-.122 1.166.327 2.17 1.004 2.24.677.07 1.325-.818 1.447-1.984.122-1.167-.328-2.17-1.004-2.24-.677-.071-1.325.817-1.447 1.984ZM60.096 97.93c.242 1.83 1.287 3.201 2.335 3.063 1.047-.138 1.7-1.733 1.457-3.563-.242-1.83-1.287-3.202-2.335-3.064-1.047.138-1.7 1.734-1.457 3.564ZM56.646 86.166c1.596.68 3.194.52 3.57-.358.375-.878-.614-2.14-2.21-2.82-1.596-.68-3.195-.52-3.57.358-.376.878.614 2.14 2.21 2.82ZM40.59 93.28c.25.594 1.12.796 1.941.45.822-.345 1.285-1.106 1.034-1.7-.25-.594-1.12-.795-1.94-.45-.823.345-1.285 1.106-1.035 1.7ZM15.29 85.26c.264.627 1.18.84 2.045.476.866-.364 1.353-1.166 1.089-1.792-.264-.626-1.18-.838-2.045-.475-.866.364-1.353 1.166-1.09 1.792ZM60.046 91.487c.359 1.074 1.207 1.76 1.895 1.53.687-.228.954-1.284.596-2.358-.359-1.074-1.207-1.759-1.895-1.53-.687.229-.954 1.284-.596 2.358ZM54.615 45.745c.23 1.733 1.22 3.031 2.212 2.9.992-.13 1.61-1.641 1.381-3.374-.229-1.732-1.22-3.03-2.212-2.9-.992.13-1.61 1.642-1.381 3.374ZM54.34 38.971c.413 1.237 1.39 2.025 2.18 1.762.792-.263 1.1-1.479.687-2.715-.413-1.236-1.389-2.024-2.18-1.761-.792.263-1.1 1.478-.687 2.714ZM48.837 79.24c.12 1.226 1.774 2.069 3.695 1.882 1.922-.186 3.383-1.331 3.263-2.557-.12-1.226-1.774-2.069-3.695-1.882-1.922.186-3.382 1.331-3.263 2.557ZM55.506 98.542c.87.709 1.951.825 2.415.258.463-.566.134-1.6-.736-2.31-.87-.708-1.95-.824-2.415-.257-.463.566-.134 1.6.736 2.31ZM24.884 89.094c.315.745 1.33 1.03 2.27.635.938-.394 1.444-1.318 1.13-2.064-.315-.745-1.331-1.03-2.27-.635-.938.394-1.444 1.318-1.13 2.064ZM68.654 99.04c.677.162 1.453-.655 1.732-1.823.28-1.169-.043-2.247-.72-2.408-.677-.162-1.453.655-1.733 1.823-.28 1.17.043 2.247.72 2.409ZM57.74 109.744c.296 1.529 1.33 2.616 2.308 2.426.978-.189 1.53-1.582 1.233-3.111-.297-1.529-1.33-2.616-2.309-2.426-.978.189-1.53 1.582-1.233 3.111ZM16.045 53.118c.049 1.577.924 2.83 1.955 2.798 1.03-.031 1.826-1.336 1.777-2.914-.049-1.577-.924-2.83-1.955-2.798-1.03.032-1.826 1.336-1.777 2.914Z"/>
  <path fill="#2A5EBC"
        d="M14.025 49.179c.32 1.612 1.416 2.754 2.448 2.55 1.032-.204 1.61-1.676 1.29-3.288-.32-1.612-1.416-2.754-2.448-2.55-1.032.204-1.61 1.676-1.29 3.288ZM21.993 73.324c.048 1.517.889 2.722 1.88 2.692.99-.03 1.756-1.286 1.709-2.803-.047-1.517-.889-2.723-1.88-2.692-.99.03-1.756 1.285-1.709 2.803ZM19.24 69.08c.297 1.527 1.329 2.61 2.305 2.422.977-.189 1.528-1.58 1.231-3.105-.296-1.526-1.328-2.61-2.305-2.422-.976.19-1.527 1.58-1.23 3.106ZM66.89 115.881c1.132 1.198 2.684 1.571 3.468.834.784-.737.501-2.306-.63-3.504-1.132-1.198-2.685-1.571-3.468-.834-.784.737-.502 2.306.63 3.504ZM7.034 57.521c-.128 1.215.34 2.26 1.046 2.334.705.074 1.38-.852 1.508-2.068.127-1.215-.342-2.26-1.047-2.334-.705-.073-1.38.853-1.507 2.068ZM6.006 52.469c-.128 1.231.346 2.29 1.061 2.364.715.075 1.399-.863 1.528-2.094.129-1.231-.346-2.29-1.061-2.364-.715-.075-1.399.863-1.528 2.094ZM3.172 63.12c.32.959 1.075 1.57 1.688 1.367.612-.204.85-1.146.53-2.104-.32-.958-1.076-1.57-1.688-1.366-.613.204-.85 1.145-.53 2.104ZM20.783 88.203c.176.64 1.166.926 2.21.64 1.045-.287 1.75-1.038 1.573-1.678-.176-.64-1.166-.925-2.21-.639-1.045.287-1.75 1.038-1.573 1.677ZM11.753 69.163c.688.164 1.476-.664 1.76-1.85.283-1.185-.045-2.28-.733-2.443-.688-.164-1.476.664-1.76 1.85-.283 1.186.045 2.28.733 2.443ZM4.51 88.14c.764 1.367 2.042 2.107 2.856 1.655.813-.453.853-1.927.09-3.293s-2.041-2.106-2.855-1.654c-.813.453-.853 1.927-.09 3.293ZM14.135 76.828c1.448 2.35 3.682 3.606 4.99 2.803 1.308-.802 1.195-3.358-.253-5.709-1.447-2.35-3.681-3.606-4.99-2.803-1.308.802-1.195 3.358.253 5.709ZM24.547 81.384c.19.687 1.113 1.032 2.063.772.95-.26 1.566-1.029 1.377-1.716-.19-.687-1.113-1.032-2.063-.772-.95.261-1.566 1.03-1.377 1.716ZM10.135 91.209c-.03.919 1.113 1.703 2.554 1.75 1.441.048 2.634-.658 2.665-1.577.03-.92-1.113-1.703-2.554-1.751-1.441-.048-2.634.658-2.665 1.578ZM16.197 91.748c.305 1.108 1.684 1.696 3.081 1.313 1.396-.384 2.281-1.593 1.976-2.7-.306-1.109-1.685-1.697-3.082-1.314-1.396.384-2.28 1.593-1.975 2.7ZM87.848 52.504c-.03.892 1.08 1.653 2.478 1.7 1.399.046 2.556-.64 2.586-1.532.03-.893-1.08-1.654-2.478-1.7-1.398-.047-2.556.64-2.586 1.532ZM93.794 53.05c.311 1.13 1.717 1.73 3.139 1.339 1.422-.39 2.323-1.623 2.012-2.752-.311-1.13-1.717-1.729-3.139-1.339-1.422.39-2.323 1.623-2.012 2.752ZM77.494 112.072c-.028.853 1.03 1.58 2.365 1.625 1.336.044 2.44-.611 2.47-1.464.028-.853-1.032-1.58-2.366-1.624-1.335-.045-2.44.611-2.47 1.463ZM82.694 112.479c.303 1.099 1.672 1.682 3.057 1.301 1.386-.38 2.264-1.579 1.961-2.678-.303-1.099-1.671-1.682-3.057-1.301-1.386.38-2.264 1.579-1.961 2.678ZM8.04 76.444c.776.82 1.84 1.077 2.377.572.536-.505.342-1.58-.434-2.401-.776-.821-1.84-1.078-2.376-.573-.537.505-.343 1.58.433 2.402ZM29.632 80.966c.65.204 1.446-.488 1.78-1.545.332-1.057.075-2.08-.575-2.283-.65-.204-1.446.488-1.779 1.545-.333 1.057-.076 2.08.574 2.283ZM36.06 71.81c.195.708 1.29 1.025 2.447.708 1.156-.318 1.935-1.149 1.74-1.857-.195-.709-1.29-1.025-2.447-.708-1.156.317-1.936 1.149-1.74 1.857ZM15.084 64.524c.43.772 1.152 1.19 1.61.935.46-.255.481-1.087.05-1.859-.43-.771-1.152-1.19-1.61-.935-.46.256-.482 1.088-.05 1.86ZM12.526 60.105c.291 1.496 1.303 2.56 2.261 2.374.958-.186 1.498-1.549 1.208-3.046-.291-1.496-1.303-2.56-2.261-2.374-.958.186-1.498 1.549-1.208 3.046Z"/>
  <path fill="#2A5EBC"
        d="M25.307 73.856c-.027.808.978 1.498 2.245 1.54 1.266.042 2.315-.58 2.342-1.388.027-.809-.978-1.498-2.245-1.54-1.267-.042-2.315.58-2.342 1.388ZM38.781 77.486c.203.735 1.119 1.126 2.046.871.927-.254 1.514-1.057 1.31-1.792-.202-.736-1.118-1.126-2.044-.872-.927.254-1.514 1.057-1.312 1.793Z"/>
</svg>
