<svg xmlns="http://www.w3.org/2000/svg" version="1.1" viewBox="0 0 82 44.22">
  <path fill="#fff"
        d="m7.417 27.346-.458 1.176c-.433-.328-1.119-.492-2.058-.492-.916 0-1.631.392-2.146 1.176-.51.78-.766 1.74-.766 2.885 0 1.084.26 1.996.78 2.734.52.734 1.235 1.1 2.146 1.1.93 0 1.647-.33 2.153-.99l.76 1.052c-.798.784-1.821 1.176-3.07 1.176-1.322 0-2.354-.476-3.097-1.429-.743-.952-1.114-2.19-1.114-3.712 0-1.458.392-2.693 1.176-3.705C2.51 27.305 3.557 26.8 4.86 26.8c1.071 0 1.924.182 2.557.546Zm8.723 9.646-.773-4.41-2.208 4.533h-.349l-2.2-4.464-.753 4.34h-1.25l1.4-7.45h.35l2.707 5.462 2.672-5.462h.335l1.374 7.45H16.14Zm5.427-7.465c1.049 0 1.86.34 2.434 1.019.579.674.868 1.595.868 2.761 0 1.199-.3 2.136-.902 2.81-.602.674-1.402 1.012-2.4 1.012-1.043 0-1.857-.342-2.44-1.026-.583-.683-.875-1.615-.875-2.796 0-1.125.305-2.037.916-2.734.61-.697 1.41-1.046 2.4-1.046Zm0 6.542c.611 0 1.085-.253 1.422-.759.342-.506.513-1.173.513-2.003 0-1.809-.645-2.714-1.935-2.714-.61 0-1.091.247-1.442.739-.346.492-.52 1.15-.52 1.975 0 1.841.654 2.762 1.962 2.762Zm9.673-5.305h-2.098v6.228h-1.3v-6.228h-2.105v-1.093h5.503v1.093Zm2.653 5.825v3.274h-1.306V29.671h1.306v.601a2.412 2.412 0 0 1 1.777-.745c1.034 0 1.841.328 2.42.985.579.651.868 1.6.868 2.843 0 1.121-.294 2.03-.882 2.728-.583.697-1.424 1.046-2.522 1.046-.301 0-.63-.055-.985-.164-.35-.11-.576-.235-.676-.376Zm0-5.34v4.273c.1.132.278.253.533.363.255.104.506.157.752.157 1.613 0 2.42-.916 2.42-2.748 0-.948-.196-1.63-.588-2.044-.392-.42-1.003-.63-1.832-.63-.178 0-.404.07-.677.206-.273.137-.476.278-.608.424Zm12.66 2.216h-5.278c0 .537.092.993.274 1.367.182.373.444.67.786.889.346.214.763.32 1.25.32.735 0 1.355-.22 1.86-.662l.533 1.052a2.934 2.934 0 0 1-1.127.554c-.41.096-.916.144-1.518.144-.993 0-1.811-.34-2.454-1.019-.638-.684-.957-1.579-.957-2.686 0-1.163.335-2.101 1.005-2.817.674-.72 1.48-1.08 2.42-1.08 1.011 0 1.818.285 2.42.855.601.565.902 1.326.902 2.283 0 .191-.039.458-.116.8ZM43.4 30.62c-.57 0-1.05.187-1.442.56-.387.37-.602.814-.643 1.333h4.047c0-.556-.178-1.009-.533-1.36-.355-.355-.832-.533-1.429-.533Zm9.646.143h-2.099v6.228H49.65v-6.228h-2.105v-1.093h5.503v1.093Zm2.639 1.62c.624-.072 1.132-.109 1.524-.109.934 0 1.645.203 2.133.608.492.406.738 1.005.738 1.798 0 .62-.237 1.16-.71 1.62-.475.46-1.209.69-2.202.69h-2.775v-7.32h1.291v2.714Zm0 3.541c.319.028.831.042 1.538.042.483 0 .861-.112 1.134-.335.278-.228.417-.554.417-.978 0-.907-.54-1.36-1.62-1.36-.373 0-.863.038-1.47.116v2.516Zm11.511-.854c.283 0 .524.1.725.3.2.201.3.443.3.725 0 .283-.1.527-.3.732-.2.2-.442.3-.725.3a.988.988 0 0 1-.724-.3 1.01 1.01 0 0 1-.301-.732c0-.282.1-.524.3-.724.201-.2.443-.301.725-.301Zm5.14 0c.283 0 .525.1.725.3.201.201.301.443.301.725 0 .283-.1.527-.3.732-.201.2-.443.3-.725.3a.988.988 0 0 1-.725-.3 1.01 1.01 0 0 1-.3-.732c0-.282.1-.524.3-.724.2-.2.442-.301.725-.301Zm5.141 0c.283 0 .525.1.725.3.2.201.3.443.3.725 0 .283-.1.527-.3.732-.2.2-.442.3-.725.3a.988.988 0 0 1-.724-.3 1.01 1.01 0 0 1-.3-.732c0-.282.1-.524.3-.724.2-.2.442-.301.724-.301ZM36.999.743c-4.625 0-8.409 3.783-8.409 8.407 0 4.624 3.784 8.407 8.409 8.407 4.625 0 8.409-3.783 8.409-8.407 0-4.624-3.784-8.407-8.41-8.407ZM40.53 12.68l-4.373-2.69V4.946h1.261v4.372l3.784 2.27-.672 1.093Z"/>
</svg>
