<svg xmlns="http://www.w3.org/2000/svg" fill="none">
  <path fill="#fff"
        d="M49.615 6.651c.547-1.872.052-3.661-1.105-3.996-1.156-.334-2.537.913-3.084 2.785-.547 1.873-.053 3.661 1.104 3.996 1.157.334 2.538-.913 3.085-2.785ZM74.38 16.962c2.66 0 4.817-1.192 4.817-2.662S77.04 11.64 74.38 11.64s-4.816 1.192-4.816 2.661c0 1.47 2.156 2.662 4.816 2.662ZM86.556 17.065c1.495-2.249 1.534-4.843.088-5.794-1.446-.952-3.83.1-5.325 2.348-1.495 2.248-1.534 4.842-.088 5.794 1.446.951 3.83-.1 5.325-2.348ZM30.203 3.692c.474-1.622-.193-3.24-1.49-3.616-1.298-.375-2.733.637-3.207 2.259-.474 1.622.194 3.24 1.49 3.616 1.298.375 2.734-.636 3.207-2.259ZM54.945 5.687c1.075-.695 1.164-2.455.2-3.93C54.18.28 52.527-.354 51.452.34c-1.074.695-1.164 2.455-.2 3.932.965 1.476 2.618 2.11 3.693 1.414ZM53.553 65.6c.58-1.084-.331-2.696-2.036-3.6-1.706-.905-3.559-.759-4.14.325-.58 1.084.33 2.696 2.036 3.6 1.705.905 3.559.76 4.14-.325ZM132.844 30.116c.541-1.854.053-3.625-1.09-3.955-1.144-.33-2.51.904-3.051 2.758-.542 1.854-.054 3.625 1.09 3.955 1.143.33 2.509-.904 3.051-2.758ZM69.795 46.13c.907-.901.373-2.894-1.192-4.451-1.566-1.558-3.57-2.089-4.476-1.187-.906.902-.372 2.895 1.193 4.452s3.569 2.088 4.475 1.187ZM75.525 49.82c.43-1.137-.671-2.6-2.46-3.27-1.788-.668-3.586-.288-4.015.849-.43 1.137.671 2.6 2.46 3.27 1.788.668 3.586.288 4.015-.849Z"/>
  <path fill="#fff"
        d="M51.096 16.173c1.01-.773.741-2.805-.6-4.54-1.34-1.735-3.246-2.516-4.255-1.743-1.01.772-.742 2.804.599 4.54 1.34 1.734 3.246 2.515 4.256 1.743ZM140.819 71.746c.721-1.638.34-3.387-.852-3.906-1.192-.52-2.743.387-3.464 2.025-.721 1.638-.339 3.387.853 3.906 1.192.52 2.742-.388 3.463-2.025ZM147.815 78.871c1.838-.874 2.342-3.633 1.126-6.161-1.216-2.528-3.691-3.869-5.529-2.994s-2.342 3.633-1.126 6.162c1.216 2.528 3.692 3.868 5.529 2.993ZM33.58 37.19c1.298-.847 1.227-3.236-.158-5.336s-3.56-3.116-4.857-2.27c-1.298.848-1.227 3.237.158 5.337 1.385 2.1 3.56 3.116 4.858 2.27ZM12.86 79.776c1.11-.849.814-3.085-.661-4.994-1.475-1.908-3.571-2.768-4.681-1.919-1.11.85-.815 3.085.66 4.994 1.475 1.909 3.571 2.768 4.681 1.92ZM22.166 71.441c.221-1.68-2.068-3.364-5.113-3.76-3.045-.396-5.692.645-5.913 2.326-.221 1.68 2.068 3.363 5.113 3.76 3.045.396 5.692-.645 5.913-2.326ZM105.101 67.792c.938-2.13.441-4.404-1.109-5.08-1.55-.675-3.567.504-4.505 2.634-.938 2.13-.441 4.405 1.109 5.08 1.551.676 3.568-.504 4.505-2.634ZM135.572 59.934c.867-.863.355-2.772-1.144-4.263-1.499-1.491-3.417-2-4.285-1.138-.867.863-.355 2.772 1.144 4.263 1.499 1.491 3.417 2 4.285 1.138ZM141.941 85.835c.891-.887.363-2.848-1.178-4.382-1.542-1.534-3.514-2.06-4.405-1.173-.891.886-.363 2.848 1.179 4.382 1.542 1.534 3.514 2.059 4.404 1.172ZM137.005 64.382c.434-1.147-.677-2.624-2.481-3.299-1.803-.674-3.617-.29-4.05.857-.434 1.147.677 2.624 2.48 3.299 1.804.674 3.618.29 4.051-.857ZM129.587 87.84c2.802-.58 4.765-2.523 4.385-4.34-.38-1.818-2.959-2.822-5.76-2.243-2.802.579-4.765 2.522-4.385 4.34.38 1.818 2.959 2.822 5.76 2.242ZM148.238 60.527c.947-.723.694-2.63-.565-4.258-1.258-1.629-3.045-2.362-3.991-1.639-.947.724-.694 2.63.565 4.26 1.258 1.628 3.045 2.361 3.991 1.637ZM85.957 37.262c.6-1.118-.34-2.78-2.1-3.713-1.758-.933-3.67-.783-4.269.335-.599 1.118.341 2.78 2.1 3.713 1.759.933 3.67.783 4.27-.335ZM146.697 52.084c.574-1.073-.329-2.667-2.017-3.563-1.688-.895-3.523-.752-4.097.32-.574 1.072.328 2.667 2.017 3.563 1.688.895 3.522.752 4.097-.32ZM75.302 79.547c.496-1.889-1.229-3.973-3.853-4.655-2.625-.682-5.154.296-5.65 2.186-.497 1.889 1.229 3.973 3.853 4.655 2.625.682 5.154-.297 5.65-2.186ZM105.179 84.445c1.835-.873 2.339-3.627 1.125-6.15-1.214-2.523-3.685-3.86-5.52-2.987-1.835.873-2.34 3.627-1.126 6.15 1.214 2.523 3.686 3.86 5.521 2.987ZM135.956 35.755c2.031-.151 3.597-1.343 3.498-2.66-.099-1.319-1.826-2.265-3.858-2.113-2.031.15-3.597 1.342-3.498 2.66.099 1.318 1.826 2.264 3.858 2.113ZM115.386 79.957c1.041-.667 1.135-2.365.211-3.791-.925-1.427-2.518-2.043-3.558-1.376-1.04.667-1.134 2.364-.21 3.791.924 1.427 2.517 2.043 3.557 1.376ZM116.589 61.72c1.992-1.273 2.174-4.523.407-7.257s-4.814-3.918-6.805-2.645c-1.992 1.274-2.174 4.523-.407 7.257s4.814 3.919 6.805 2.645ZM117.275 67.067c.2-1.415-1.232-2.784-3.198-3.058-1.965-.274-3.72.65-3.92 2.066-.199 1.415 1.233 2.784 3.198 3.058 1.966.274 3.721-.65 3.92-2.066ZM128.097 34.708c.201-1.432-1.246-2.816-3.234-3.094-1.987-.277-3.762.659-3.963 2.09-.202 1.431 1.246 2.816 3.233 3.093 1.987.277 3.762-.658 3.964-2.09ZM44.584 73.983c.764-2.276-.686-4.809-3.238-5.656-2.551-.847-5.24.31-6.003 2.587-.764 2.276.686 4.808 3.238 5.655 2.552.848 5.24-.31 6.003-2.586ZM127.958 74.856c.178-1.299-1.404-2.585-3.532-2.872-2.127-.287-3.996.533-4.173 1.832-.178 1.299 1.404 2.584 3.532 2.872 2.128.287 3.996-.533 4.173-1.832ZM22.778 56.702c.006-1.223-1.611-2.222-3.612-2.232-2.002-.01-3.629.974-3.635 2.197-.006 1.223 1.611 2.222 3.613 2.232 2.001.01 3.628-.974 3.634-2.197ZM35.304 67.75c.95-.61.913-2.35-.084-3.887-.996-1.538-2.573-2.29-3.523-1.681-.95.609-.913 2.349.083 3.886.996 1.538 2.574 2.29 3.524 1.681ZM65.803 30.927c2.159-.15 3.838-1.28 3.75-2.521-.087-1.242-1.908-2.127-4.066-1.977-2.159.15-3.838 1.279-3.75 2.52.087 1.243 1.907 2.128 4.066 1.978ZM55.068 42.467c.612-2.603-.061-4.986-1.503-5.32-1.441-.336-3.105 1.504-3.717 4.107-.611 2.604.062 4.986 1.503 5.321 1.442.335 3.106-1.504 3.717-4.108ZM35.56 54.545c1.777-1.868 2.314-4.233 1.2-5.284-1.116-1.05-3.46-.387-5.238 1.481-1.778 1.869-2.315 4.234-1.2 5.284 1.115 1.05 3.46.387 5.238-1.48ZM55.956 53.872c.329-1.682-.936-3.342-2.825-3.707-1.889-.365-3.686.702-4.015 2.385-.329 1.682.936 3.342 2.825 3.708 1.889.365 3.686-.703 4.015-2.386ZM63.716 39.685c1.795-2.055 2.322-4.525 1.176-5.516-1.147-.992-3.532-.13-5.328 1.926-1.795 2.055-2.322 4.525-1.176 5.516 1.147.991 3.532.129 5.328-1.926Z"/>
  <path fill="#fff"
        d="M50.256 59.969c1.036-.664 1.129-2.356.207-3.778-.921-1.422-2.508-2.037-3.543-1.373-1.036.664-1.129 2.356-.208 3.778.922 1.422 2.508 2.037 3.544 1.373ZM120.443 47.933c1.707-.918 2.613-2.542 2.023-3.628-.59-1.085-2.452-1.221-4.159-.303-1.707.918-2.613 2.542-2.023 3.627.589 1.086 2.451 1.222 4.159.304ZM26.458 49.28c1.61-.446 2.348-2.835 1.65-5.337-.7-2.502-2.57-4.17-4.18-3.726-1.61.445-2.348 2.834-1.65 5.336.699 2.503 2.57 4.17 4.18 3.726ZM45.19 48.376c.29-2.059-1.793-4.051-4.654-4.45-2.861-.4-5.416.946-5.706 3.005-.29 2.058 1.794 4.05 4.655 4.45 2.861.398 5.416-.947 5.706-3.005ZM60.746 25.662c1.694-3.007 1.469-6.336-.503-7.435-1.972-1.1-4.944.447-6.638 3.454s-1.469 6.335.503 7.435c1.972 1.1 4.944-.447 6.638-3.454ZM102.778 46.086c2.302-.16 4.092-1.363 3.999-2.687-.093-1.324-2.034-2.268-4.336-2.108-2.301.16-4.092 1.364-3.999 2.688.093 1.324 2.035 2.267 4.336 2.107ZM86.281 55.624c.615-2.617-.197-5.043-1.813-5.419-1.616-.375-3.424 1.442-4.039 4.059-.614 2.617.197 5.042 1.813 5.418 1.616.376 3.425-1.441 4.04-4.058ZM98.691 57.56c2.548-2.917 3.293-6.423 1.664-7.832-1.629-1.408-5.015-.186-7.563 2.73s-3.293 6.422-1.665 7.83c1.63 1.41 5.016.188 7.564-2.729ZM77.446 39.08c1.679-.901 2.57-2.497 1.99-3.564-.58-1.066-2.41-1.199-4.088-.297-1.678.903-2.568 2.498-1.99 3.565.58 1.066 2.41 1.2 4.088.297ZM65.069 60.906c1.625-.45 2.37-2.864 1.665-5.392-.706-2.529-2.596-4.215-4.221-3.766-1.626.45-2.372 2.863-1.666 5.392.706 2.529 2.596 4.215 4.222 3.766ZM64.2 77.288c1.092-.7 1.26-2.373.376-3.738-.884-1.364-2.485-1.904-3.577-1.204-1.091.7-1.259 2.373-.375 3.738.884 1.364 2.485 1.904 3.577 1.204ZM77.164 62c.18-1.276-1.11-2.51-2.883-2.758-1.771-.247-3.353.588-3.533 1.864-.18 1.276 1.11 2.511 2.882 2.759 1.772.247 3.354-.588 3.534-1.864ZM89.872 43.705c.935-1.66.81-3.498-.28-4.106-1.088-.607-2.73.246-3.665 1.906-.936 1.66-.81 3.499.279 4.106 1.089.608 2.73-.246 3.666-1.906ZM101.717 37.68c.107-1.769-2.295-3.352-5.366-3.537-3.07-.185-5.647 1.1-5.754 2.867-.108 1.769 2.294 3.352 5.365 3.537 3.07.184 5.647-1.1 5.755-2.868ZM108.882 30.984c4.011-.707 6.935-3.127 6.529-5.406-.405-2.28-3.986-3.554-7.998-2.847-4.012.706-6.936 3.127-6.53 5.406.406 2.279 3.987 3.553 7.999 2.847ZM112.282 38.405c1.959-.746 3.159-2.36 2.681-3.605-.479-1.244-2.456-1.649-4.415-.903s-3.159 2.36-2.68 3.604c.478 1.245 2.455 1.65 4.414.904ZM94.153 70.383c.59-2.014.061-3.939-1.183-4.3-1.244-.36-2.73.98-3.321 2.993-.59 2.014-.06 3.94 1.183 4.3 1.244.361 2.73-.979 3.321-2.993ZM28.727 29.837c1.327-.867 1.253-3.313-.165-5.463-1.419-2.151-3.645-3.192-4.972-2.326-1.328.867-1.254 3.313.164 5.464 1.419 2.15 3.645 3.191 4.973 2.325ZM22.607 6.27c.83-1.883.558-3.822-.606-4.329-1.164-.507-2.78.61-3.61 2.493-.828 1.884-.557 3.823.607 4.33 1.164.507 2.78-.61 3.61-2.493ZM15.83 30.245c1.614-1.853 1.957-4.187.766-5.215-1.191-1.027-3.466-.359-5.08 1.493-1.615 1.852-1.958 4.187-.767 5.215 1.192 1.028 3.466.359 5.08-1.493ZM33.183 13.003c1.363-3.098.78-6.344-1.304-7.252-2.083-.907-4.877.868-6.24 3.965-1.364 3.097-.78 6.344 1.303 7.252 2.083.907 4.877-.868 6.24-3.965ZM12.803 17.256c1.14-.542 1.452-2.25.699-3.816-.753-1.566-2.287-2.396-3.426-1.854-1.139.542-1.452 2.25-.698 3.817.753 1.566 2.287 2.396 3.425 1.853ZM86.457 75.227c1.714-.653 2.765-2.064 2.346-3.153-.419-1.088-2.148-1.441-3.863-.789-1.714.653-2.765 2.065-2.346 3.153.418 1.089 2.148 1.442 3.863.79ZM77.021 24.662c1.205-1.607 1.327-3.543.273-4.325-1.054-.782-2.885-.114-4.09 1.493-1.204 1.607-1.327 3.544-.273 4.326 1.054.782 2.886.113 4.09-1.494ZM50.466 87.681c1.238-.583 1.467-2.683.512-4.691-.956-2.007-2.734-3.162-3.973-2.579-1.238.584-1.467 2.684-.511 4.691.955 2.008 2.734 3.163 3.972 2.58ZM43.835 23.754c1.194-.562 1.415-2.585.495-4.518-.92-1.933-2.634-3.045-3.827-2.483-1.194.563-1.415 2.586-.495 4.519.92 1.933 2.634 3.045 3.827 2.482ZM47.034 29.983c.584-1.74-1.115-3.872-3.795-4.762-2.68-.89-5.327-.201-5.91 1.54-.584 1.74 1.115 3.872 3.795 4.762 2.68.89 5.326.2 5.91-1.54ZM64.424 92.823c2.313-1.09 3.07-4.317 1.694-7.21-1.377-2.892-4.367-4.354-6.68-3.265-2.311 1.09-3.07 4.317-1.693 7.21 1.377 2.892 4.367 4.354 6.68 3.265ZM33.805 76.12c.166-1.218-1.313-2.423-3.305-2.692-1.991-.269-3.74.5-3.906 1.718-.166 1.217 1.313 2.422 3.305 2.69 1.991.27 3.74-.5 3.906-1.717ZM24.904 70.031c1.201-.566 1.595-2.242.88-3.744-.715-1.502-2.268-2.26-3.469-1.695-1.2.566-1.595 2.242-.88 3.744.715 1.502 2.268 2.26 3.47 1.695ZM133.109 46.112c1.3-.62 1.66-2.565.803-4.346-.856-1.781-2.605-2.723-3.906-2.104-1.3.619-1.66 2.565-.803 4.346.856 1.78 2.605 2.723 3.906 2.104Z"/>
  <path fill="#fff"
        d="M137.192 50.665c.277-1.963-1.709-3.863-4.437-4.244-2.727-.38-5.162.903-5.439 2.867-.276 1.963 1.71 3.864 4.437 4.244 2.728.38 5.163-.903 5.439-2.867ZM12.413 48.606c1.31-2.974.615-6.15-1.552-7.094-2.166-.944-4.984.702-6.293 3.676-1.31 2.974-.615 6.15 1.552 7.094 2.166.944 4.984-.701 6.293-3.676ZM5.317 59.584c1.579-.752 2.013-3.12.97-5.289-1.044-2.17-3.17-3.319-4.749-2.567-1.579.751-2.013 3.12-.97 5.289 1.044 2.17 3.17 3.319 4.749 2.567Z"/>
</svg>
