<svg xmlns="http://www.w3.org/2000/svg" version="1.1" viewBox="0 0 67.14 44.22">
  <g clip-path="url(#a)">
    <path fill="#080809" fill-opacity=".7"
          d="M66.073 7.866a7.807 7.807 0 0 0-2.178-3.525 8.584 8.584 0 0 0-3.763-2.042C54.924.97 33.96.97 33.96.97s-20.965.04-26.174 1.37a8.585 8.585 0 0 0-3.763 2.042 7.807 7.807 0 0 0-2.178 3.525C.27 16.578-.343 29.793 1.888 38.118a7.807 7.807 0 0 0 2.178 3.525 8.585 8.585 0 0 0 3.762 2.042c5.209 1.33 26.174 1.33 26.174 1.33s20.965 0 26.173-1.33a8.584 8.584 0 0 0 3.763-2.042 7.806 7.806 0 0 0 2.178-3.525c1.662-8.684 2.174-21.89-.043-30.252Z"/>
    <path fill="#fff" d="m27.29 32.43 17.391-9.438-17.391-9.439v18.878Z"/>
  </g>
  <defs>
    <clipPath id="a">
      <path fill="#fff" d="M.428.968h67.138v44.223H.428z"/>
    </clipPath>
  </defs>
</svg>
