<svg xmlns="http://www.w3.org/2000/svg" version="1.1" viewBox="0 0 76 37">
  <path fill="#fff"
        d="M40.575.584v3.721C36.83 4.305 30 4.342 30 14.876c.774-7.044 4.331-7.088 10.575-7.088v4.063l6.243-5.634L40.575.584ZM7.868 33.876H6.494v-8.778H2.393v8.778H1.025V23.868h6.843v10.008Zm4.785-7.465c1.048 0 1.86.34 2.434 1.018.579.675.868 1.595.868 2.762 0 1.199-.3 2.135-.902 2.81-.602.674-1.402 1.011-2.4 1.011-1.043 0-1.857-.342-2.44-1.025-.583-.684-.875-1.616-.875-2.796 0-1.126.305-2.037.916-2.735.61-.697 1.41-1.045 2.4-1.045Zm0 6.542c.611 0 1.085-.253 1.422-.76.342-.505.513-1.173.513-2.002 0-1.81-.645-2.714-1.935-2.714-.61 0-1.091.246-1.442.738-.346.492-.52 1.151-.52 1.976 0 1.841.654 2.762 1.962 2.762Zm11.512 3.315h-1.148v-2.392h-5.182v2.392h-1.149v-3.432h.561c.565-.66 1-1.467 1.306-2.42a9.525 9.525 0 0 0 .458-2.912v-.95h4.327v6.282h.827v3.432Zm-2.078-3.432v-5.25H20.09c0 .962-.14 1.917-.417 2.865-.274.948-.663 1.743-1.17 2.385h3.583Zm9.495-2.488h-5.277c0 .538.09.994.273 1.367.182.374.445.67.786.889.347.214.764.321 1.251.321.734 0 1.354-.22 1.86-.663l.533 1.053a2.934 2.934 0 0 1-1.128.554c-.41.095-.916.143-1.518.143-.993 0-1.811-.34-2.454-1.018-.638-.684-.957-1.58-.957-2.687 0-1.162.335-2.1 1.005-2.816.675-.72 1.481-1.08 2.42-1.08 1.012 0 1.818.284 2.42.854.602.565.902 1.326.902 2.283 0 .192-.038.458-.116.8Zm-3.151-2.844c-.57 0-1.05.187-1.443.56-.387.37-.601.814-.642 1.334h4.047c0-.556-.178-1.01-.534-1.36-.355-.356-.831-.534-1.428-.534Zm10.725 6.372h-1.299v-6.29h-1.962a15.32 15.32 0 0 1-.314 2.858c-.187.87-.44 1.59-.759 2.16-.319.565-.665.932-1.039 1.1-.373.17-.822.254-1.346.254v-1.19c.815 0 1.392-.631 1.729-1.893.342-1.267.513-2.48.513-3.637v-.684h4.477v7.322Zm7.971 0h-1.299v-5.011l-4.566 5.209h-.294v-7.52h1.305v5.01l4.56-5.208h.294v7.52Zm6.85-6.228h-2.1v6.228H50.58v-6.228h-2.105v-1.094h5.503v1.094Zm2.638 1.62c.625-.073 1.133-.11 1.525-.11.934 0 1.645.203 2.133.61.492.405.738 1.004.738 1.797 0 .62-.237 1.16-.711 1.62-.474.46-1.208.69-2.201.69h-2.776v-7.32h1.292v2.713Zm0 3.541c.32.027.832.041 1.538.041.483 0 .862-.112 1.135-.335.278-.228.417-.554.417-.977 0-.907-.54-1.36-1.62-1.36-.374 0-.864.038-1.47.116v2.515Zm11.32-5.653-.628.909c-.16-.141-.401-.269-.725-.383a2.768 2.768 0 0 0-.97-.178c-.712 0-1.274.251-1.69.752-.414.502-.621 1.18-.621 2.038 0 .829.207 1.476.622 1.94.415.461 1.01.691 1.784.691.583 0 1.174-.23 1.77-.69l.5 1.094c-.68.455-1.543.683-2.591.683-.994 0-1.816-.335-2.468-1.005-.647-.674-.97-1.579-.97-2.713 0-1.2.341-2.145 1.025-2.838.688-.697 1.61-1.045 2.768-1.045.397 0 .814.082 1.251.246.438.164.752.33.944.499Zm6.918 6.72H73.61v-2.981h-.601c-.684 0-1.203.141-1.559.424-.355.282-.592.765-.71 1.45-.137.783-.59 1.175-1.361 1.175-.169 0-.317-.01-.444-.028v-1.134c.068.018.157.027.266.027.21 0 .34-.134.39-.403.182-.925.713-1.557 1.593-1.894-.552-.09-.985-.303-1.3-.636a1.676 1.676 0 0 1-.464-1.169c0-.487.137-.916.41-1.285.274-.369.627-.62 1.06-.752.433-.132.966-.198 1.6-.198.765 0 1.553.037 2.364.11v7.294Zm-1.244-3.904v-2.44a13.037 13.037 0 0 0-1.292-.069c-.542 0-.945.117-1.21.349a1.068 1.068 0 0 0-.396.84c0 .438.17.764.513.978.346.21.781.32 1.305.329l1.08.013Z"/>
</svg>
