<svg xmlns="http://www.w3.org/2000/svg" version="1.1" viewBox="0 0 185 42"><path fill="#000" fill-opacity=".3" d="M0 .936h184.036V42H0V.936Z"/><path fill="#fff" d="M21.138 23.741h-1.231v-7.535h-3.675v7.535h-1.225v-8.59h6.131v8.59ZM25.426 17.333c.939 0 1.666.292 2.18.875.519.579.778 1.369.778 2.37 0 1.03-.27 1.833-.808 2.412-.54.58-1.256.869-2.15.869-.935 0-1.664-.294-2.187-.88-.523-.587-.784-1.387-.784-2.4 0-.967.274-1.75.82-2.348.548-.599 1.265-.898 2.15-.898Zm0 5.616c.547 0 .972-.217 1.274-.651.306-.435.46-1.008.46-1.72 0-1.553-.579-2.33-1.734-2.33-.547 0-.978.212-1.293.634-.31.423-.465.988-.465 1.696 0 1.58.586 2.371 1.758 2.371ZM34.57 17.973l-.563.78c-.143-.121-.36-.23-.65-.328a2.578 2.578 0 0 0-.869-.153c-.637 0-1.141.215-1.513.646-.372.43-.557 1.013-.557 1.748 0 .712.186 1.268.557 1.667.372.395.905.593 1.599.593.522 0 1.051-.198 1.586-.593l.447.939c-.608.391-1.382.587-2.321.587-.89 0-1.627-.288-2.211-.863-.58-.579-.87-1.356-.87-2.33 0-1.029.306-1.84.919-2.435.616-.599 1.443-.898 2.48-.898.356 0 .73.07 1.121.211.392.141.674.284.846.429ZM42.098 23.741l-.692-3.785-1.978 3.89h-.313l-1.972-3.831-.674 3.726h-1.12l1.255-6.396h.313l2.425 4.689 2.395-4.69h.3l1.231 6.397h-1.17ZM46.962 17.333c.939 0 1.666.292 2.18.875.519.579.778 1.369.778 2.37 0 1.03-.27 1.833-.808 2.412-.54.58-1.256.869-2.15.869-.935 0-1.664-.294-2.187-.88-.523-.587-.784-1.387-.784-2.4 0-.967.274-1.75.82-2.348.548-.599 1.265-.898 2.15-.898Zm0 5.616c.547 0 .972-.217 1.274-.651.306-.435.46-1.008.46-1.72 0-1.553-.579-2.33-1.734-2.33-.548 0-.978.212-1.293.634-.31.423-.465.988-.465 1.696 0 1.58.586 2.371 1.758 2.371ZM55.629 18.395h-1.88v5.346h-1.164v-5.346h-1.887v-.939h4.93v.94ZM58.005 23.395v2.81h-1.17v-8.749h1.17v.517c.441-.427.972-.64 1.593-.64.927 0 1.65.282 2.168.845.519.56.778 1.373.778 2.441 0 .963-.263 1.743-.79 2.342-.523.598-1.276.898-2.26.898-.27 0-.564-.047-.882-.141-.315-.094-.517-.202-.607-.323Zm0-4.583v3.668c.09.113.25.217.478.31.229.09.453.136.674.136 1.445 0 2.168-.787 2.168-2.36 0-.813-.175-1.398-.527-1.754-.35-.36-.898-.54-1.641-.54-.16 0-.361.059-.606.176-.245.117-.427.239-.546.364ZM69.35 20.713h-4.73c0 .462.082.853.245 1.174.164.32.399.575.705.763.31.184.684.276 1.12.276.658 0 1.214-.19 1.667-.57l.478.904c-.307.23-.643.39-1.011.475-.367.082-.82.124-1.36.124-.89 0-1.623-.292-2.199-.875-.571-.587-.857-1.355-.857-2.306 0-.998.3-1.803.9-2.418.604-.618 1.327-.927 2.168-.927.907 0 1.63.245 2.169.734.539.485.808 1.138.808 1.96 0 .164-.034.393-.104.686Zm-2.825-2.44c-.51 0-.94.16-1.292.48a1.694 1.694 0 0 0-.576 1.145h3.626c0-.478-.159-.867-.477-1.168-.319-.305-.746-.458-1.28-.458ZM75.168 18.395h-1.88v5.346h-1.164v-5.346h-1.887v-.939h4.931v.94ZM77.532 19.786c.56-.063 1.015-.094 1.366-.094.837 0 1.474.174 1.911.522.441.349.662.863.662 1.544 0 .532-.213.995-.637 1.39-.425.396-1.082.593-1.972.593h-2.487v-6.285h1.157v2.33Zm0 3.04c.286.023.746.035 1.379.035.432 0 .771-.096 1.016-.288.25-.195.374-.475.374-.839 0-.778-.484-1.168-1.452-1.168-.335 0-.774.034-1.317.1v2.16ZM91.865 23.741h-1.17v-2.834h-3.02v2.834h-1.17v-6.285h1.17v2.524h3.02v-2.524h1.17v6.285ZM97.163 23.02c-.473.559-1.184.839-2.131.839-.519 0-.966-.18-1.341-.54a1.771 1.771 0 0 1-.564-1.332c0-.638.288-1.176.864-1.614.58-.438 1.323-.657 2.23-.657.248 0 .53.047.844.14 0-1.017-.477-1.525-1.433-1.525-.715 0-1.274.19-1.678.569l-.49-.927c.196-.16.492-.307.888-.44.4-.133.786-.2 1.158-.2.922 0 1.604.202 2.045.605.441.402.662 1.072.662 2.007v2.247c0 .552.171.92.514 1.103v.552c-.506 0-.873-.073-1.102-.217a1.116 1.116 0 0 1-.466-.61Zm-.098-2.365c-.416-.083-.675-.124-.778-.124-.588 0-1.067.147-1.439.44-.371.294-.557.636-.557 1.027 0 .658.402.986 1.206.986.576 0 1.099-.268 1.568-.804v-1.525ZM126.305 16.883a1.94 1.94 0 0 0-.627-.885 2.595 2.595 0 0 0-1.083-.512c-1.498-.334-7.529-.334-7.529-.334s-6.032.01-7.53.344c-.409.09-.782.267-1.082.512-.3.245-.516.55-.627.885-.453 2.177-.629 5.493.012 7.582.111.335.327.64.627.885s.673.422 1.082.512c1.499.334 7.53.334 7.53.334s6.031 0 7.53-.334c.409-.09.782-.267 1.082-.512.3-.245.516-.55.627-.885.478-2.18.625-5.494-.013-7.592h.001ZM166.675 18.225c.63 0 1.106.112 1.439.325.333.213.57.55.713 1.01.143.46.202 1.089.202 1.896v1.314h-3.055v.403l.047 1.111c.036.247.095.427.19.539.096.112.25.168.452.168.274 0 .464-.1.559-.303.107-.202.155-.538.166-.998l1.582.09c.012.067.012.156.012.269 0 .707-.203 1.234-.619 1.582-.416.348-.986.527-1.735.527-.904 0-1.534-.269-1.891-.796-.356-.528-.547-1.358-.547-2.47v-1.357c.041-1.907.396-3.305 2.485-3.31Zm-21.983.146v5.622c0 .336.036.583.119.729.169.312.606.232.844.079a.918.918 0 0 0 .321-.348V18.37h1.819v7.664h-1.427l-.154-.943h-.036c-.392.707-.975 1.066-1.748 1.066-1.189-.003-1.48-.811-1.549-1.633l-.005-.058a7.763 7.763 0 0 1-.015-.373V18.37h1.831Zm9.381 0v5.622c0 .336.035.583.118.729.169.312.607.232.845.079a.926.926 0 0 0 .321-.348V18.37h1.819v7.664h-1.427l-.155-.943h-.035c-.393.707-.975 1.066-1.748 1.066-1.189-.003-1.48-.811-1.55-1.633l-.004-.058a5.826 5.826 0 0 1-.015-.373V18.37h1.831Zm-14.66-.146c.595 0 1.082.112 1.439.348.356.235.63.594.796 1.088.167.494.25 1.156.25 1.975v1.11c0 .82-.083 1.471-.25 1.965-.166.494-.428.853-.796 1.088-.369.225-.868.348-1.486.348-.642.011-1.142-.112-1.51-.336-.369-.236-.631-.595-.785-1.089-.155-.494-.226-1.145-.226-1.964v-1.11c0-.82.083-1.493.262-1.987.178-.505.451-.864.832-1.088.38-.225.868-.348 1.474-.348Zm20.616-3.075v4.04h.012c.166-.292.38-.528.678-.707.277-.176.604-.27.939-.27.44 0 .773.113 1.022.326.25.224.428.572.535 1.055.104.467.163 1.114.167 1.929V22.814c0 1.134-.155 1.975-.44 2.514-.297.539-.749.808-1.367.808a2.03 2.03 0 0 1-.94-.224 1.62 1.62 0 0 1-.606-.578l-.024-.04h-.035l-.191.73h-1.51V15.15h1.76Zm-7.276.393v1.391h-1.807v9.1h-1.784v-9.1h-1.819v-1.391h5.41Zm-19.606 0 .002.004c.017.073.257 1.082.522 2.257l.021.093.031.14.021.095.011.048.021.095.01.047.021.096.031.139c.179.814.349 1.63.451 2.215h.048a60.62 60.62 0 0 1 .39-1.882l.04-.18.06-.268.031-.14c.206-.908.417-1.816.635-2.722l.003-.015.006-.022h1.819l-2.105 7.08v3.4h-1.795v-3.388h-.012l-2.081-7.092h1.819Zm6.23 3.871c-.249 0-.416.124-.523.382-.107.258-.154.65-.154 1.2v2.39c0 .562.047.977.142 1.224.096.247.274.37.535.37.25 0 .428-.123.535-.37.108-.247.155-.662.155-1.223v-2.39c0-.55-.048-.954-.155-1.201-.107-.258-.285-.382-.535-.382Zm20.973.225a1.018 1.018 0 0 0-.309.476l-.012.04v4.354c.147.235.357.392.725.404a.59.59 0 0 0 .464-.202c.119-.135.202-.36.25-.673.045-.302.069-.718.071-1.247v-1.065c0-.606-.024-1.066-.06-1.392-.047-.325-.106-.56-.213-.695-.207-.28-.654-.277-.916 0Zm6.29-.258c-.203.01-.345.067-.429.168-.095.112-.154.28-.19.527-.035.242-.047 1.088-.047 1.122v.55h1.331v-.486.01c-.001.17-.004-.099-.012-.428l-.002-.045c-.007-.29-.018-.612-.033-.723-.036-.258-.096-.437-.191-.538-.095-.101-.237-.157-.428-.157h.001Z"/><path fill="#282115" d="m115.236 23.445 4.598-2.763-4.598-2.764v5.527Z"/></svg>